<svg version="1.2" xmlns="http://www.w3.org/2000/svg" viewBox="0 0 269 136"><style>.s0{fill:#fff}.s1{fill:#fff}.s2{fill:#fff}</style><path class="s0" d="m37 63.6h50.7v45.8h-25.4v-25.3h-50.6v-20.5l50.6-50.7h25.4z" /><path class="s0" d="m98.5 12.9h25.4l-25.4 25.3z" /><path class="s0" d="m123.9 63.6v25.3h-25.4v-25.3l25.4-25.4v-25.3h25.3v25.3z" /><path class="s0" d="m149.2 88.9h-25.3l25.3-25.3z" /><path class="s1" d="m173.7 63.6h2v25.2h-2z" /><path fill-rule="evenodd" class="s2" d="m187.2 68.9h4.5q2.4 0 3.5 1.1q1.1 1.1 1.1 2.9q0 2.3-1.3 3.5q-1.3 1.2-4 1.1h-1.8l-0.5 4.7h-3.1zm2.8 2.5l-0.5 3.7h1.1q1.4 0 1.9-0.6q0.6-0.5 0.6-1.4q0-0.7-0.5-1.2q-0.5-0.4-1.7-0.5h-0.9z" /><path fill-rule="evenodd" class="s2" d="m198.7 68.9h4.1q1.2 0 2.1 0.2q0.8 0.2 1.5 1q0.9 1 0.9 2.7q0 1.8-1.1 2.9q-0.8 0.9-2.1 1.1l3.5 5.4h-3.6l-3.3-5.2l-0.6 5.2h-3.1zm2.8 2.4l-0.5 3.7h0.8q1.2 0 1.8-0.5q0.7-0.5 0.7-1.6q0-0.8-0.7-1.3q-0.5-0.3-1.6-0.3z" /><path fill-rule="evenodd" class="s2" d="m218.1 82.2l-0.7-2.5h-5l-1.3 2.5h-3.3l7-13.3h2.9l3.6 13.3zm-4.6-4.8h3.3l-1.1-4.7z" /><path class="s2" d="m229.3 77.4l0.3-2.5h6.3q-0.1 3.8-2.1 5.7q-1.8 1.9-4.9 1.9q-3.1 0-4.9-1.9q-1.7-1.7-1.7-4.6q0-3.2 2-5.4q1.2-1.1 2.5-1.6q1.3-0.4 3-0.4q2.2 0 3.7 1q1.3 0.8 2.2 2.4l-2.9 1.5q-0.4-1-1.2-1.6q-0.8-0.5-2-0.5q-1.8 0-2.8 1.1q-1.3 1.4-1.3 3.4q0 1.8 1.1 2.9q0.9 0.9 2.7 0.9q1.3 0 2.1-0.6q0.9-0.6 1.2-1.7h-3.3z" /><path class="s2" d="m239.1 68.9h3l-0.8 7.3q-0.1 0.7-0.1 1.1q0 1.2 0.5 1.8q0.7 0.6 1.8 0.6q1.3 0 2-0.7q0.6-0.7 0.9-2.5l0.9-7.6h3.1l-1 7.8q-0.1 1-0.2 1.6q-0.1 0.6-0.5 1.4q-0.3 0.8-0.9 1.4q-1.4 1.4-4.4 1.4q-2.8 0-4.2-1.4q-1.2-1.1-1.2-3q0-0.7 0.2-2.1z" /><path class="s2" d="m260.6 68.9l-0.3 2.6h-4.3l-0.4 2.6h4.2l-0.3 2.6h-4.2l-0.3 2.9h4.4l-0.3 2.6h-7.5l1.7-13.3h7.3z" /><g style="display: none"><path fill="#ff0000" aria-label="This following guides can be hidden or deleted for several "  d="m-346.2-299.75v-1h7.4v1h-3.1v7.75h-1.19v-7.75zm13.95 3.79v3.96h-1.08v-3.93q0-0.93-0.36-1.39q-0.37-0.46-1.09-0.46q-0.88 0-1.38 0.55q-0.5 0.56-0.5 1.52v3.71h-1.09v-9.12h1.09v3.58q0.38-0.59 0.9-0.89q0.53-0.29 1.22-0.29q1.13 0 1.71 0.7q0.58 0.7 0.58 2.06zm2.15 3.96v-6.56h1.08v6.56zm0-7.75v-1.37h1.08v1.37zm7.51 1.38v1.02q-0.45-0.23-0.95-0.35q-0.49-0.12-1.02-0.12q-0.8 0-1.2 0.25q-0.4 0.24-0.4 0.74q0 0.37 0.29 0.59q0.28 0.21 1.15 0.4l0.37 0.08q1.15 0.25 1.63 0.7q0.48 0.45 0.48 1.25q0 0.91-0.72 1.45q-0.72 0.53-1.99 0.53q-0.53 0-1.1-0.1q-0.57-0.11-1.2-0.31v-1.11q0.6 0.31 1.18 0.47q0.58 0.15 1.14 0.15q0.77 0 1.18-0.26q0.41-0.26 0.41-0.74q0-0.44-0.3-0.67q-0.3-0.24-1.3-0.45l-0.37-0.09q-1-0.21-1.45-0.65q-0.44-0.44-0.44-1.2q0-0.92 0.65-1.43q0.66-0.5 1.86-0.5q0.6 0 1.13 0.09q0.53 0.09 0.97 0.26zm8.19-2.75h1.02v0.9h-1.03q-0.58 0-0.81 0.23q-0.22 0.24-0.22 0.85v0.58h1.77v0.84h-1.77v5.72h-1.09v-5.72h-1.03v-0.84h1.03v-0.46q0-1.1 0.51-1.59q0.51-0.51 1.62-0.51zm4.46 3.31q-0.86 0-1.37 0.68q-0.5 0.68-0.5 1.85q0 1.18 0.5 1.86q0.5 0.68 1.37 0.68q0.86 0 1.37-0.68q0.5-0.68 0.5-1.86q0-1.16-0.5-1.84q-0.51-0.69-1.37-0.69zm0-0.91q1.41 0 2.21 0.91q0.8 0.92 0.8 2.53q0 1.62-0.8 2.54q-0.8 0.91-2.21 0.91q-1.41 0-2.21-0.91q-0.8-0.92-0.8-2.54q0-1.61 0.8-2.53q0.8-0.91 2.21-0.91zm4.8 6.72v-9.12h1.08v9.12zm3.33 0v-9.12h1.08v9.12zm5.88-5.81q-0.87 0-1.37 0.68q-0.51 0.68-0.51 1.85q0 1.18 0.5 1.86q0.51 0.68 1.38 0.68q0.86 0 1.36-0.68q0.51-0.68 0.51-1.86q0-1.16-0.51-1.84q-0.5-0.69-1.36-0.69zm0-0.91q1.41 0 2.21 0.91q0.8 0.92 0.8 2.53q0 1.62-0.8 2.54q-0.8 0.91-2.21 0.91q-1.41 0-2.22-0.91q-0.79-0.92-0.79-2.54q0-1.61 0.79-2.53q0.81-0.91 2.22-0.91zm5.89 6.72l-1.72-6.56h1.08l1.35 5.12l1.34-5.12h1.27l1.35 5.12l1.34-5.12h1.08l-1.72 6.56h-1.27l-1.41-5.38l-1.42 5.38zm8.72 0v-6.56h1.08v6.56zm0-7.75v-1.37h1.08v1.37zm8.79 3.79v3.96h-1.08v-3.93q0-0.93-0.36-1.39q-0.37-0.46-1.09-0.46q-0.88 0-1.38 0.55q-0.5 0.56-0.5 1.52v3.71h-1.09v-6.56h1.09v1.02q0.38-0.59 0.91-0.89q0.52-0.29 1.21-0.29q1.13 0 1.71 0.7q0.58 0.7 0.58 2.06zm6.47 0.6q0-1.17-0.49-1.81q-0.48-0.65-1.35-0.65q-0.87 0-1.36 0.65q-0.48 0.64-0.48 1.81q0 1.17 0.48 1.81q0.49 0.65 1.36 0.65q0.87 0 1.35-0.65q0.49-0.64 0.49-1.81zm1.08-3.2v5.75q0 1.67-0.75 2.49q-0.74 0.82-2.28 0.82q-0.57 0-1.07-0.09q-0.5-0.08-0.98-0.26v-1.05q0.48 0.26 0.94 0.38q0.46 0.13 0.94 0.13q1.06 0 1.59-0.56q0.53-0.55 0.53-1.67v-0.53q-0.34 0.58-0.86 0.86q-0.52 0.29-1.25 0.29q-1.2 0-1.94-0.92q-0.74-0.92-0.74-2.44q0-1.52 0.74-2.44q0.74-0.92 1.94-0.92q0.73 0 1.25 0.29q0.52 0.28 0.86 0.86v-0.99zm10.35 3.2q0-1.17-0.48-1.81q-0.49-0.65-1.36-0.65q-0.87 0-1.35 0.65q-0.48 0.64-0.48 1.81q0 1.17 0.48 1.81q0.48 0.65 1.35 0.65q0.87 0 1.36-0.65q0.48-0.64 0.48-1.81zm1.08-3.2v5.75q0 1.67-0.74 2.49q-0.75 0.82-2.28 0.82q-0.57 0-1.08-0.09q-0.5-0.08-0.97-0.26v-1.05q0.47 0.26 0.93 0.38q0.47 0.13 0.95 0.13q1.06 0 1.58-0.56q0.53-0.55 0.53-1.67v-0.53q-0.33 0.58-0.85 0.86q-0.53 0.29-1.25 0.29q-1.21 0-1.95-0.92q-0.74-0.92-0.74-2.44q0-1.52 0.74-2.44q0.74-0.92 1.95-0.92q0.72 0 1.25 0.29q0.52 0.28 0.85 0.86v-0.99zm2.11 3.97v-3.97h1.08v3.93q0 0.93 0.36 1.4q0.37 0.46 1.09 0.46q0.88 0 1.38-0.55q0.51-0.56 0.51-1.52v-3.72h1.08v6.56h-1.08v-1.01q-0.39 0.6-0.92 0.89q-0.51 0.29-1.2 0.29q-1.13 0-1.71-0.7q-0.59-0.71-0.59-2.06zm2.71-4.13zm5.01 6.72v-6.56h1.08v6.56zm0-7.75v-1.37h1.07v1.37zm7.66 2.18v-3.55h1.07v9.12h-1.07v-0.98q-0.34 0.58-0.87 0.87q-0.51 0.28-1.24 0.28q-1.19 0-1.94-0.95q-0.74-0.95-0.74-2.5q0-1.54 0.74-2.49q0.75-0.95 1.94-0.95q0.73 0 1.24 0.29q0.53 0.28 0.87 0.86zm-3.68 2.29q0 1.19 0.49 1.87q0.49 0.68 1.35 0.68q0.85 0 1.34-0.68q0.5-0.68 0.5-1.87q0-1.18-0.5-1.86q-0.49-0.68-1.34-0.68q-0.86 0-1.35 0.68q-0.49 0.68-0.49 1.86zm12.59-0.27v0.53h-4.96q0.07 1.11 0.67 1.7q0.6 0.58 1.67 0.58q0.63 0 1.21-0.16q0.58-0.15 1.16-0.45v1.02q-0.58 0.24-1.19 0.37q-0.61 0.13-1.24 0.13q-1.57 0-2.49-0.91q-0.91-0.92-0.91-2.48q0-1.61 0.86-2.55q0.88-0.95 2.35-0.95q1.33 0 2.09 0.85q0.78 0.85 0.78 2.32zm-4.92-0.31l3.84-0.01q-0.01-0.88-0.5-1.41q-0.48-0.53-1.28-0.53q-0.9 0-1.44 0.51q-0.54 0.51-0.62 1.44zm10.87-2.51v1.02q-0.46-0.23-0.95-0.35q-0.49-0.12-1.02-0.12q-0.8 0-1.2 0.25q-0.4 0.24-0.4 0.74q0 0.37 0.28 0.59q0.29 0.21 1.16 0.4l0.37 0.08q1.15 0.25 1.63 0.7q0.48 0.45 0.48 1.25q0 0.91-0.72 1.45q-0.72 0.53-1.99 0.53q-0.53 0-1.1-0.1q-0.57-0.11-1.2-0.31v-1.11q0.59 0.31 1.18 0.47q0.58 0.15 1.14 0.15q0.77 0 1.18-0.26q0.41-0.26 0.41-0.74q0-0.44-0.3-0.67q-0.3-0.24-1.3-0.45l-0.37-0.09q-1.01-0.21-1.45-0.65q-0.45-0.44-0.45-1.2q0-0.92 0.66-1.43q0.66-0.5 1.86-0.5q0.6 0 1.13 0.09q0.53 0.09 0.97 0.26zm10.61 0.06v1.01q-0.46-0.25-0.92-0.38q-0.46-0.13-0.93-0.13q-1.05 0-1.63 0.67q-0.58 0.66-0.58 1.86q0 1.21 0.58 1.87q0.58 0.67 1.63 0.67q0.47 0 0.93-0.13q0.46-0.13 0.92-0.38v1q-0.45 0.21-0.94 0.31q-0.48 0.11-1.03 0.11q-1.48 0-2.35-0.93q-0.87-0.93-0.87-2.52q0-1.6 0.87-2.52q0.89-0.92 2.42-0.92q0.5 0 0.98 0.1q0.47 0.1 0.92 0.31zm5.93 3.01h-1.08q-1.3 0-1.81 0.3q-0.5 0.3-0.5 1.02q0 0.57 0.37 0.91q0.39 0.34 1.04 0.34q0.89 0 1.43-0.64q0.55-0.63 0.55-1.69zm1.07-0.44v3.74h-1.07v-1q-0.37 0.6-0.92 0.89q-0.55 0.28-1.35 0.28q-1.01 0-1.61-0.56q-0.59-0.57-0.59-1.52q0-1.11 0.74-1.67q0.74-0.56 2.21-0.56h1.52v-0.11q0-0.74-0.5-1.15q-0.48-0.41-1.37-0.41q-0.56 0-1.09 0.14q-0.54 0.13-1.03 0.4v-0.99q0.59-0.23 1.15-0.34q0.56-0.12 1.08-0.12q1.43 0 2.13 0.74q0.7 0.74 0.7 2.24zm7.68-0.22v3.96h-1.08v-3.93q0-0.93-0.36-1.39q-0.36-0.46-1.09-0.46q-0.87 0-1.38 0.55q-0.5 0.56-0.5 1.52v3.71h-1.09v-6.56h1.09v1.02q0.39-0.59 0.91-0.89q0.52-0.29 1.21-0.29q1.13 0 1.71 0.7q0.58 0.7 0.58 2.06zm10.68 0.68q0-1.18-0.5-1.86q-0.48-0.68-1.34-0.68q-0.85 0-1.35 0.68q-0.48 0.68-0.48 1.86q0 1.19 0.48 1.87q0.5 0.68 1.35 0.68q0.86 0 1.34-0.68q0.5-0.68 0.5-1.87zm-3.67-5.84v3.55q0.34-0.58 0.85-0.86q0.53-0.29 1.25-0.29q1.19 0 1.94 0.95q0.75 0.95 0.75 2.49q0 1.55-0.75 2.5q-0.75 0.95-1.94 0.95q-0.72 0-1.25-0.28q-0.51-0.29-0.85-0.87v0.98h-1.09v-9.12zm12.19 5.57v0.53h-4.96q0.08 1.11 0.67 1.7q0.61 0.58 1.68 0.58q0.62 0 1.2-0.16q0.59-0.15 1.16-0.45v1.02q-0.58 0.24-1.19 0.37q-0.61 0.13-1.24 0.13q-1.57 0-2.49-0.91q-0.91-0.92-0.91-2.48q0-1.61 0.87-2.55q0.87-0.95 2.35-0.95q1.32 0 2.09 0.85q0.77 0.85 0.77 2.32zm-4.92-0.31l3.84-0.01q-0.01-0.88-0.49-1.41q-0.48-0.53-1.28-0.53q-0.9 0-1.45 0.51q-0.54 0.51-0.62 1.44zm15.96-0.1v3.96h-1.08v-3.93q0-0.93-0.36-1.39q-0.36-0.46-1.09-0.46q-0.87 0-1.38 0.55q-0.5 0.56-0.5 1.52v3.71h-1.09v-9.12h1.09v3.58q0.39-0.59 0.91-0.89q0.52-0.29 1.21-0.29q1.13 0 1.71 0.7q0.58 0.7 0.58 2.06zm2.15 3.96v-6.56h1.08v6.56zm0-7.75v-1.37h1.08v1.37zm7.65 2.18v-3.55h1.08v9.12h-1.08v-0.98q-0.34 0.58-0.86 0.87q-0.52 0.28-1.24 0.28q-1.19 0-1.94-0.95q-0.75-0.95-0.75-2.5q0-1.54 0.75-2.49q0.75-0.95 1.94-0.95q0.72 0 1.24 0.29q0.52 0.28 0.86 0.86zm-3.67 2.29q0 1.19 0.48 1.87q0.49 0.68 1.35 0.68q0.86 0 1.35-0.68q0.49-0.68 0.49-1.87q0-1.18-0.49-1.86q-0.49-0.68-1.35-0.68q-0.86 0-1.35 0.68q-0.48 0.68-0.48 1.86zm11.29-2.29v-3.55h1.08v9.12h-1.08v-0.98q-0.34 0.58-0.86 0.87q-0.52 0.28-1.25 0.28q-1.19 0-1.94-0.95q-0.74-0.95-0.74-2.5q0-1.54 0.74-2.49q0.75-0.95 1.94-0.95q0.73 0 1.25 0.29q0.52 0.28 0.86 0.86zm-3.68 2.29q0 1.19 0.49 1.87q0.49 0.68 1.35 0.68q0.85 0 1.34-0.68q0.5-0.68 0.5-1.87q0-1.18-0.5-1.86q-0.49-0.68-1.34-0.68q-0.86 0-1.35 0.68q-0.49 0.68-0.49 1.86zm12.59-0.27v0.53h-4.96q0.07 1.11 0.67 1.7q0.6 0.58 1.68 0.58q0.62 0 1.2-0.16q0.58-0.15 1.16-0.45v1.02q-0.58 0.24-1.19 0.37q-0.61 0.13-1.24 0.13q-1.57 0-2.49-0.91q-0.91-0.92-0.91-2.48q0-1.61 0.86-2.55q0.88-0.95 2.35-0.95q1.33 0 2.1 0.85q0.77 0.85 0.77 2.32zm-4.92-0.31l3.84-0.01q-0.01-0.88-0.5-1.41q-0.48-0.53-1.27-0.53q-0.91 0-1.45 0.51q-0.54 0.51-0.62 1.44zm12.14-0.1v3.96h-1.07v-3.93q0-0.93-0.37-1.39q-0.36-0.46-1.09-0.46q-0.87 0-1.37 0.55q-0.51 0.56-0.51 1.52v3.71h-1.08v-6.56h1.08v1.02q0.39-0.59 0.91-0.89q0.53-0.29 1.21-0.29q1.13 0 1.71 0.7q0.58 0.7 0.58 2.06zm8.51-1.85q-0.87 0-1.37 0.68q-0.5 0.68-0.5 1.85q0 1.18 0.49 1.86q0.51 0.68 1.38 0.68q0.86 0 1.37-0.68q0.5-0.68 0.5-1.86q0-1.16-0.5-1.84q-0.51-0.69-1.37-0.69zm0-0.91q1.41 0 2.21 0.91q0.8 0.92 0.8 2.53q0 1.62-0.8 2.54q-0.8 0.91-2.21 0.91q-1.41 0-2.21-0.91q-0.8-0.92-0.8-2.54q0-1.61 0.8-2.53q0.8-0.91 2.21-0.91zm8.6 0.06v1.11q-0.18-0.11-0.4-0.16q-0.21-0.05-0.46-0.05q-0.92 0-1.41 0.6q-0.49 0.59-0.49 1.7v3.46h-1.08v-6.56h1.08v1.02q0.34-0.6 0.89-0.89q0.54-0.29 1.32-0.29q0.11 0 0.25 0.02q0.13 0.01 0.3 0.04zm9.27 1.09v-3.55h1.07v9.12h-1.07v-0.98q-0.34 0.58-0.86 0.87q-0.52 0.28-1.25 0.28q-1.19 0-1.94-0.95q-0.74-0.95-0.74-2.5q0-1.54 0.74-2.49q0.75-0.95 1.94-0.95q0.73 0 1.25 0.29q0.52 0.28 0.86 0.86zm-3.68 2.29q0 1.19 0.49 1.87q0.49 0.68 1.35 0.68q0.85 0 1.34-0.68q0.5-0.68 0.5-1.87q0-1.18-0.5-1.86q-0.49-0.68-1.34-0.68q-0.86 0-1.35 0.68q-0.49 0.68-0.49 1.86zm12.59-0.27v0.53h-4.96q0.07 1.11 0.67 1.7q0.6 0.58 1.68 0.58q0.62 0 1.2-0.16q0.58-0.15 1.16-0.45v1.02q-0.58 0.24-1.19 0.37q-0.61 0.13-1.24 0.13q-1.57 0-2.49-0.91q-0.91-0.92-0.91-2.48q0-1.61 0.86-2.55q0.88-0.95 2.35-0.95q1.33 0 2.1 0.85q0.77 0.85 0.77 2.32zm-4.92-0.31l3.84-0.01q-0.01-0.88-0.5-1.41q-0.48-0.53-1.27-0.53q-0.91 0-1.45 0.51q-0.54 0.51-0.62 1.44zm6.69 3.86v-9.12h1.08v9.12zm8.94-3.55v0.53h-4.95q0.07 1.11 0.66 1.7q0.61 0.58 1.68 0.58q0.62 0 1.2-0.16q0.59-0.15 1.16-0.45v1.02q-0.58 0.24-1.19 0.37q-0.61 0.13-1.23 0.13q-1.57 0-2.49-0.91q-0.92-0.92-0.92-2.48q0-1.61 0.87-2.55q0.87-0.95 2.35-0.95q1.32 0 2.09 0.85q0.77 0.85 0.77 2.32zm-4.92-0.31l3.85-0.01q-0.02-0.88-0.5-1.41q-0.48-0.53-1.28-0.53q-0.9 0-1.45 0.51q-0.54 0.51-0.62 1.44zm6.68-4.57h1.08v1.87h2.22v0.84h-2.22v3.56q0 0.8 0.22 1.03q0.22 0.23 0.89 0.23h1.11v0.9h-1.11q-1.25 0-1.72-0.46q-0.47-0.47-0.47-1.7v-3.56h-0.8v-0.84h0.8zm10.33 4.87v0.53h-4.96q0.07 1.11 0.67 1.7q0.61 0.58 1.68 0.58q0.62 0 1.2-0.15q0.59-0.16 1.16-0.46v1.02q-0.58 0.25-1.19 0.37q-0.61 0.13-1.24 0.13q-1.57 0-2.49-0.91q-0.91-0.91-0.91-2.47q0-1.61 0.87-2.56q0.87-0.95 2.35-0.95q1.32 0 2.09 0.86q0.77 0.85 0.77 2.31zm-4.92-0.31h3.84q-0.01-0.89-0.49-1.42q-0.48-0.52-1.28-0.52q-0.9 0-1.45 0.51q-0.54 0.51-0.62 1.43zm11.01-1.7v-3.55h1.08v9.11h-1.08v-0.98q-0.34 0.59-0.86 0.87q-0.52 0.28-1.24 0.28q-1.19 0-1.94-0.95q-0.75-0.95-0.75-2.49q0-1.55 0.75-2.5q0.75-0.95 1.94-0.95q0.72 0 1.24 0.29q0.52 0.28 0.86 0.87zm-3.67 2.29q0 1.19 0.48 1.87q0.49 0.67 1.35 0.67q0.86 0 1.35-0.67q0.49-0.68 0.49-1.87q0-1.19-0.49-1.87q-0.49-0.67-1.35-0.67q-0.86 0-1.35 0.67q-0.48 0.68-0.48 1.87zm13.09-5.84h1.02v0.89h-1.04q-0.58 0-0.8 0.24q-0.23 0.23-0.23 0.84v0.58h1.78v0.84h-1.78v5.72h-1.08v-5.72h-1.03v-0.84h1.03v-0.46q0-1.09 0.51-1.59q0.51-0.5 1.62-0.5zm4.46 3.31q-0.87 0-1.37 0.68q-0.5 0.67-0.5 1.85q0 1.18 0.49 1.86q0.51 0.67 1.38 0.67q0.86 0 1.37-0.68q0.5-0.68 0.5-1.85q0-1.17-0.5-1.85q-0.51-0.68-1.37-0.68zm0-0.92q1.41 0 2.21 0.92q0.8 0.91 0.8 2.53q0 1.61-0.8 2.53q-0.8 0.91-2.21 0.91q-1.41 0-2.21-0.91q-0.8-0.92-0.8-2.53q0-1.62 0.8-2.53q0.8-0.92 2.21-0.92zm8.6 0.06v1.11q-0.18-0.11-0.4-0.15q-0.21-0.06-0.47-0.06q-0.91 0-1.4 0.6q-0.49 0.59-0.49 1.71v3.45h-1.08v-6.56h1.08v1.02q0.34-0.6 0.89-0.88q0.54-0.3 1.32-0.3q0.11 0 0.25 0.02q0.13 0.01 0.3 0.04zm9.13 0.29v1.02q-0.46-0.23-0.95-0.35q-0.49-0.11-1.02-0.11q-0.8 0-1.2 0.24q-0.4 0.25-0.4 0.74q0 0.37 0.28 0.59q0.29 0.21 1.16 0.41l0.37 0.08q1.15 0.24 1.63 0.69q0.48 0.45 0.48 1.25q0 0.92-0.72 1.45q-0.72 0.53-1.99 0.53q-0.53 0-1.1-0.1q-0.57-0.1-1.2-0.31v-1.11q0.59 0.31 1.17 0.47q0.58 0.15 1.15 0.15q0.76 0 1.17-0.26q0.42-0.26 0.42-0.74q0-0.43-0.3-0.67q-0.3-0.23-1.3-0.45l-0.37-0.09q-1.01-0.21-1.45-0.64q-0.45-0.44-0.45-1.2q0-0.93 0.66-1.43q0.66-0.51 1.86-0.51q0.6 0 1.13 0.09q0.53 0.09 0.97 0.26zm7.68 2.82v0.53h-4.95q0.07 1.11 0.66 1.7q0.61 0.58 1.68 0.58q0.62 0 1.2-0.15q0.59-0.16 1.16-0.46v1.02q-0.58 0.25-1.19 0.37q-0.61 0.13-1.24 0.13q-1.57 0-2.49-0.91q-0.91-0.91-0.91-2.47q0-1.61 0.87-2.56q0.87-0.95 2.35-0.95q1.32 0 2.09 0.86q0.77 0.85 0.77 2.31zm-4.92-0.31h3.84q-0.01-0.89-0.49-1.42q-0.48-0.52-1.28-0.52q-0.9 0-1.45 0.51q-0.54 0.51-0.62 1.43zm8.38 3.86l-2.46-6.56h1.14l2.05 5.51l2.05-5.51h1.15l-2.47 6.56zm11.03-3.55v0.53h-4.96q0.08 1.11 0.67 1.7q0.61 0.58 1.68 0.58q0.62 0 1.2-0.15q0.59-0.16 1.16-0.46v1.02q-0.58 0.25-1.19 0.37q-0.61 0.13-1.24 0.13q-1.57 0-2.49-0.91q-0.91-0.91-0.91-2.47q0-1.61 0.87-2.56q0.87-0.95 2.35-0.95q1.32 0 2.09 0.86q0.77 0.85 0.77 2.31zm-4.92-0.31h3.84q-0.01-0.89-0.49-1.42q-0.48-0.52-1.28-0.52q-0.9 0-1.45 0.51q-0.54 0.51-0.62 1.43zm10.49-2.8v1.11q-0.18-0.11-0.39-0.15q-0.22-0.06-0.47-0.06q-0.92 0-1.41 0.6q-0.49 0.59-0.49 1.71v3.45h-1.08v-6.56h1.08v1.02q0.34-0.6 0.89-0.88q0.54-0.3 1.32-0.3q0.11 0 0.25 0.02q0.13 0.01 0.3 0.04zm5.19 3.36h-1.07q-1.31 0-1.81 0.3q-0.51 0.3-0.51 1.02q0 0.58 0.38 0.92q0.38 0.33 1.03 0.33q0.9 0 1.43-0.63q0.55-0.64 0.55-1.7zm1.08-0.44v3.74h-1.08v-0.99q-0.37 0.6-0.92 0.88q-0.55 0.28-1.35 0.28q-1.01 0-1.6-0.56q-0.6-0.57-0.6-1.52q0-1.1 0.74-1.67q0.75-0.56 2.22-0.56h1.51v-0.1q0-0.75-0.49-1.15q-0.49-0.41-1.37-0.41q-0.57 0-1.1 0.13q-0.53 0.14-1.02 0.41v-1q0.59-0.23 1.14-0.34q0.56-0.12 1.09-0.12q1.42 0 2.12 0.74q0.71 0.74 0.71 2.24zm2.22 3.74v-9.11h1.08v9.11z" /><path fill="#ff0000" aria-label="exports of your logotype. But please refer carefully to it. "  d="m-339.42-276.55v0.53h-4.96q0.07 1.11 0.67 1.7q0.61 0.58 1.68 0.58q0.62 0 1.2-0.16q0.58-0.15 1.16-0.45v1.02q-0.58 0.24-1.19 0.37q-0.61 0.13-1.24 0.13q-1.57 0-2.49-0.91q-0.91-0.92-0.91-2.48q0-1.61 0.87-2.55q0.87-0.95 2.35-0.95q1.32 0 2.09 0.85q0.77 0.85 0.77 2.32zm-4.92-0.31l3.84-0.01q-0.01-0.88-0.5-1.41q-0.48-0.53-1.27-0.53q-0.9 0-1.45 0.51q-0.54 0.51-0.62 1.44zm10.66-2.7h1.27l-2.37 3.19l2.5 3.37h-1.27l-1.91-2.58l-1.91 2.58h-1.28l2.55-3.43l-2.33-3.13h1.27l1.74 2.34zm3.96 5.57v3.48h-1.08v-9.05h1.08v0.99q0.34-0.58 0.86-0.87q0.52-0.28 1.24-0.28q1.2 0 1.94 0.95q0.75 0.95 0.75 2.49q0 1.55-0.75 2.5q-0.74 0.95-1.94 0.95q-0.72 0-1.24-0.28q-0.52-0.29-0.86-0.88zm3.67-2.29q0-1.19-0.49-1.86q-0.49-0.68-1.34-0.68q-0.86 0-1.35 0.68q-0.49 0.67-0.49 1.86q0 1.19 0.49 1.87q0.49 0.68 1.35 0.68q0.85 0 1.34-0.68q0.49-0.68 0.49-1.87zm5.45-2.53q-0.87 0-1.37 0.68q-0.5 0.67-0.5 1.85q0 1.18 0.49 1.86q0.51 0.67 1.38 0.67q0.86 0 1.37-0.68q0.5-0.68 0.5-1.85q0-1.16-0.5-1.84q-0.51-0.69-1.37-0.69zm0-0.91q1.41 0 2.21 0.91q0.8 0.92 0.8 2.53q0 1.61-0.8 2.53q-0.8 0.92-2.21 0.92q-1.41 0-2.21-0.92q-0.8-0.92-0.8-2.53q0-1.61 0.8-2.53q0.8-0.91 2.21-0.91zm8.6 0.06v1.1q-0.18-0.1-0.4-0.15q-0.21-0.05-0.46-0.05q-0.92 0-1.41 0.6q-0.49 0.59-0.49 1.7v3.46h-1.08v-6.56h1.08v1.01q0.34-0.59 0.89-0.88q0.54-0.29 1.32-0.29q0.11 0 0.25 0.01q0.13 0.02 0.3 0.05zm1.12-1.77h1.08v1.87h2.22v0.83h-2.22v3.57q0 0.8 0.22 1.03q0.22 0.23 0.89 0.23h1.11v0.9h-1.11q-1.24 0-1.72-0.46q-0.47-0.47-0.47-1.7v-3.57h-0.8v-0.83h0.8zm8.9 2.05v1.02q-0.45-0.23-0.95-0.35q-0.49-0.12-1.02-0.12q-0.8 0-1.2 0.25q-0.4 0.25-0.4 0.74q0 0.37 0.29 0.59q0.28 0.21 1.15 0.4l0.37 0.09q1.15 0.24 1.63 0.69q0.48 0.45 0.48 1.25q0 0.91-0.72 1.45q-0.72 0.53-1.99 0.53q-0.53 0-1.1-0.1q-0.57-0.1-1.2-0.31v-1.11q0.6 0.31 1.18 0.47q0.58 0.15 1.14 0.15q0.77 0 1.18-0.26q0.41-0.26 0.41-0.74q0-0.44-0.3-0.67q-0.3-0.24-1.3-0.45l-0.37-0.09q-1-0.21-1.45-0.64q-0.44-0.44-0.44-1.21q0-0.92 0.65-1.43q0.66-0.5 1.86-0.5q0.6 0 1.13 0.09q0.53 0.09 0.97 0.26zm8.43 0.56q-0.87 0-1.37 0.68q-0.51 0.68-0.51 1.86q0 1.17 0.5 1.85q0.5 0.68 1.38 0.68q0.86 0 1.36-0.68q0.51-0.68 0.51-1.85q0-1.17-0.51-1.85q-0.5-0.69-1.36-0.69zm0-0.91q1.4 0 2.21 0.91q0.8 0.92 0.8 2.54q0 1.61-0.8 2.53q-0.81 0.91-2.21 0.91q-1.41 0-2.22-0.91q-0.79-0.92-0.79-2.53q0-1.62 0.79-2.54q0.81-0.91 2.22-0.91zm7.1-2.4h1.02v0.9h-1.03q-0.58 0-0.81 0.23q-0.22 0.24-0.22 0.85v0.58h1.77v0.84h-1.77v5.72h-1.09v-5.72h-1.03v-0.84h1.03v-0.46q0-1.09 0.51-1.59q0.51-0.51 1.62-0.51zm11.35 2.56l-2.88 7.17q-0.46 1.17-0.89 1.53q-0.44 0.36-1.16 0.36h-0.87v-0.91h0.64q0.44 0 0.69-0.21q0.24-0.21 0.54-0.99l0.2-0.49l-2.66-6.46h1.15l2.05 5.13l2.05-5.13zm4.03 0.75q-0.87 0-1.37 0.68q-0.51 0.68-0.51 1.86q0 1.17 0.5 1.85q0.5 0.68 1.38 0.68q0.86 0 1.36-0.68q0.51-0.68 0.51-1.85q0-1.17-0.51-1.85q-0.5-0.69-1.36-0.69zm0-0.91q1.4 0 2.21 0.91q0.8 0.92 0.8 2.54q0 1.61-0.8 2.53q-0.81 0.91-2.21 0.91q-1.41 0-2.22-0.91q-0.79-0.92-0.79-2.53q0-1.62 0.79-2.54q0.81-0.91 2.22-0.91zm4.69 4.13v-3.97h1.07v3.93q0 0.93 0.37 1.4q0.36 0.46 1.09 0.46q0.87 0 1.37-0.55q0.51-0.56 0.51-1.52v-3.72h1.08v6.56h-1.08v-1.01q-0.39 0.6-0.91 0.89q-0.52 0.29-1.2 0.29q-1.13 0-1.72-0.7q-0.58-0.71-0.58-2.06zm2.71-4.13zm8.8 0.06v1.11q-0.18-0.11-0.39-0.16q-0.21-0.05-0.47-0.05q-0.92 0-1.41 0.6q-0.48 0.59-0.48 1.7v3.46h-1.09v-6.56h1.09v1.02q0.33-0.6 0.88-0.89q0.54-0.29 1.32-0.29q0.12 0 0.25 0.02q0.13 0.01 0.3 0.04zm4.95 6.66v-9.12h1.08v9.12zm5.88-5.81q-0.87 0-1.38 0.68q-0.5 0.68-0.5 1.86q0 1.17 0.5 1.85q0.5 0.68 1.38 0.68q0.86 0 1.36-0.68q0.5-0.68 0.5-1.85q0-1.17-0.5-1.85q-0.5-0.69-1.36-0.69zm0-0.91q1.4 0 2.2 0.91q0.81 0.92 0.81 2.54q0 1.61-0.81 2.53q-0.8 0.91-2.2 0.91q-1.42 0-2.22-0.91q-0.8-0.92-0.8-2.53q0-1.62 0.8-2.54q0.8-0.91 2.22-0.91zm9.11 3.36q0-1.17-0.48-1.81q-0.48-0.65-1.36-0.65q-0.86 0-1.35 0.65q-0.48 0.64-0.48 1.81q0 1.17 0.48 1.81q0.49 0.65 1.35 0.65q0.88 0 1.36-0.65q0.48-0.64 0.48-1.81zm1.08-3.2v5.75q0 1.67-0.74 2.49q-0.75 0.82-2.28 0.82q-0.57 0-1.08-0.08q-0.5-0.09-0.97-0.27v-1.05q0.47 0.26 0.93 0.38q0.47 0.13 0.95 0.13q1.06 0 1.59-0.55q0.52-0.56 0.52-1.68v-0.53q-0.33 0.58-0.85 0.86q-0.52 0.29-1.25 0.29q-1.21 0-1.95-0.92q-0.73-0.92-0.73-2.44q0-1.52 0.73-2.44q0.74-0.92 1.95-0.92q0.73 0 1.25 0.29q0.52 0.28 0.85 0.86v-0.99zm4.77 0.75q-0.87 0-1.37 0.68q-0.51 0.68-0.51 1.86q0 1.17 0.5 1.85q0.5 0.68 1.38 0.68q0.86 0 1.36-0.68q0.51-0.68 0.51-1.85q0-1.17-0.51-1.85q-0.5-0.69-1.36-0.69zm0-0.91q1.4 0 2.21 0.91q0.8 0.92 0.8 2.54q0 1.61-0.8 2.53q-0.81 0.91-2.21 0.91q-1.42 0-2.22-0.91q-0.8-0.92-0.8-2.53q0-1.62 0.8-2.54q0.8-0.91 2.22-0.91zm4.78-1.7h1.08v1.86h2.22v0.84h-2.22v3.56q0 0.8 0.22 1.03q0.22 0.23 0.89 0.23h1.11v0.9h-1.11q-1.24 0-1.72-0.46q-0.47-0.47-0.47-1.7v-3.56h-0.79v-0.84h0.79zm10.33 1.86l-2.88 7.17q-0.46 1.18-0.89 1.53q-0.43 0.36-1.16 0.36h-0.86v-0.9h0.63q0.45 0 0.69-0.21q0.25-0.21 0.55-1l0.19-0.49l-2.65-6.46h1.14l2.05 5.13l2.05-5.13zm2.53 5.58v3.48h-1.08v-9.06h1.08v1q0.34-0.59 0.86-0.87q0.52-0.29 1.24-0.29q1.19 0 1.94 0.95q0.75 0.95 0.75 2.5q0 1.55-0.75 2.5q-0.75 0.94-1.94 0.94q-0.72 0-1.24-0.28q-0.52-0.28-0.86-0.87zm3.67-2.29q0-1.19-0.49-1.86q-0.49-0.68-1.34-0.68q-0.86 0-1.35 0.68q-0.49 0.67-0.49 1.86q0 1.19 0.49 1.87q0.49 0.67 1.35 0.67q0.85 0 1.34-0.67q0.49-0.68 0.49-1.87zm8.52-0.28v0.53h-4.96q0.07 1.11 0.67 1.7q0.6 0.58 1.68 0.58q0.62 0 1.2-0.15q0.58-0.15 1.16-0.46v1.02q-0.58 0.25-1.19 0.38q-0.61 0.12-1.24 0.12q-1.57 0-2.49-0.91q-0.91-0.91-0.91-2.47q0-1.61 0.86-2.56q0.88-0.95 2.35-0.95q1.33 0 2.1 0.86q0.77 0.85 0.77 2.31zm-4.92-0.31h3.84q-0.01-0.89-0.5-1.41q-0.48-0.53-1.27-0.53q-0.91 0-1.45 0.51q-0.54 0.51-0.62 1.43zm6.84 3.86v-1.48h1.24v1.48zm10.6-4.17h-1.9v3.2h1.9q0.96 0 1.42-0.39q0.46-0.4 0.46-1.21q0-0.82-0.46-1.21q-0.46-0.39-1.42-0.39zm-0.14-3.6h-1.76v2.64h1.76q0.86 0 1.29-0.33q0.42-0.32 0.42-0.99q0-0.66-0.42-0.99q-0.43-0.33-1.29-0.33zm-2.94 7.77v-8.74h3.02q1.36 0 2.09 0.56q0.73 0.56 0.73 1.6q0 0.8-0.37 1.28q-0.38 0.47-1.1 0.59q0.87 0.19 1.35 0.78q0.49 0.59 0.49 1.49q0 1.17-0.8 1.81q-0.8 0.63-2.27 0.63zm8.08-2.59v-3.97h1.07v3.93q0 0.94 0.37 1.4q0.36 0.47 1.09 0.47q0.87 0 1.37-0.56q0.51-0.56 0.51-1.52v-3.72h1.08v6.56h-1.08v-1q-0.39 0.59-0.91 0.89q-0.52 0.28-1.2 0.28q-1.13 0-1.72-0.7q-0.58-0.7-0.58-2.06zm2.71-4.13zm4.99-1.7h1.08v1.86h2.22v0.84h-2.22v3.56q0 0.81 0.22 1.03q0.22 0.23 0.89 0.23h1.11v0.9h-1.11q-1.25 0-1.72-0.46q-0.47-0.47-0.47-1.7v-3.56h-0.8v-0.84h0.8zm9.58 7.44v3.48h-1.09v-9.05h1.09v0.99q0.34-0.58 0.85-0.87q0.52-0.28 1.24-0.28q1.2 0 1.94 0.95q0.75 0.95 0.75 2.49q0 1.55-0.75 2.5q-0.74 0.95-1.94 0.95q-0.72 0-1.24-0.28q-0.51-0.29-0.85-0.88zm3.66-2.29q0-1.19-0.49-1.86q-0.49-0.68-1.34-0.68q-0.86 0-1.35 0.68q-0.48 0.67-0.48 1.86q0 1.19 0.48 1.87q0.49 0.68 1.35 0.68q0.85 0 1.34-0.68q0.49-0.68 0.49-1.87zm2.91 3.28v-9.12h1.08v9.12zm8.94-3.55v0.52h-4.95q0.07 1.12 0.67 1.7q0.6 0.58 1.67 0.58q0.62 0 1.2-0.15q0.59-0.15 1.16-0.46v1.02q-0.58 0.25-1.19 0.38q-0.61 0.13-1.23 0.13q-1.57 0-2.49-0.92q-0.92-0.91-0.92-2.47q0-1.61 0.87-2.55q0.87-0.95 2.35-0.95q1.32 0 2.09 0.85q0.77 0.85 0.77 2.32zm-4.92-0.31l3.85-0.01q-0.01-0.88-0.5-1.41q-0.48-0.53-1.28-0.53q-0.9 0-1.45 0.51q-0.53 0.51-0.62 1.44zm10.75 0.56h-1.07q-1.31 0-1.81 0.3q-0.51 0.3-0.51 1.02q0 0.57 0.38 0.91q0.38 0.34 1.03 0.34q0.9 0 1.43-0.64q0.55-0.64 0.55-1.69zm1.08-0.45v3.75h-1.08v-1q-0.37 0.6-0.92 0.89q-0.55 0.28-1.35 0.28q-1.01 0-1.6-0.56q-0.6-0.57-0.6-1.52q0-1.11 0.74-1.67q0.75-0.56 2.22-0.56h1.51v-0.11q0-0.74-0.49-1.15q-0.49-0.41-1.37-0.41q-0.57 0-1.1 0.14q-0.53 0.13-1.03 0.4v-1q0.6-0.22 1.15-0.34q0.56-0.11 1.09-0.11q1.42 0 2.12 0.74q0.71 0.73 0.71 2.23zm6.4-2.62v1.02q-0.46-0.24-0.95-0.35q-0.49-0.12-1.02-0.12q-0.8 0-1.2 0.25q-0.4 0.24-0.4 0.73q0 0.38 0.28 0.6q0.29 0.21 1.16 0.4l0.37 0.08q1.15 0.25 1.63 0.7q0.48 0.44 0.48 1.25q0 0.91-0.72 1.44q-0.72 0.54-1.99 0.54q-0.53 0-1.1-0.1q-0.57-0.11-1.2-0.31v-1.12q0.6 0.32 1.18 0.47q0.58 0.16 1.14 0.16q0.77 0 1.18-0.26q0.41-0.27 0.41-0.74q0-0.44-0.3-0.67q-0.3-0.24-1.3-0.46l-0.37-0.08q-1.01-0.21-1.45-0.65q-0.45-0.44-0.45-1.2q0-0.92 0.66-1.43q0.66-0.5 1.86-0.5q0.6 0 1.13 0.09q0.53 0.08 0.97 0.26zm7.68 2.82v0.52h-4.95q0.07 1.12 0.66 1.7q0.61 0.58 1.68 0.58q0.62 0 1.2-0.15q0.59-0.15 1.16-0.46v1.02q-0.58 0.25-1.19 0.38q-0.61 0.13-1.23 0.13q-1.57 0-2.49-0.92q-0.92-0.91-0.92-2.47q0-1.61 0.87-2.55q0.87-0.95 2.35-0.95q1.32 0 2.09 0.85q0.77 0.85 0.77 2.32zm-4.92-0.31l3.85-0.01q-0.02-0.88-0.5-1.41q-0.48-0.53-1.28-0.53q-0.9 0-1.45 0.51q-0.54 0.51-0.62 1.44zm14.3-2.8l0.01 1.1q-0.18-0.1-0.4-0.15q-0.21-0.05-0.47-0.05q-0.91 0-1.4 0.6q-0.49 0.59-0.49 1.7v3.46h-1.08v-6.56h1.08v1.02q0.34-0.6 0.88-0.89q0.55-0.29 1.33-0.29q0.11 0 0.25 0.01q0.13 0.02 0.29 0.05zm6.49 3.11v0.52h-4.96q0.07 1.12 0.67 1.7q0.6 0.58 1.68 0.58q0.62 0 1.2-0.15q0.58-0.15 1.16-0.46v1.02q-0.58 0.25-1.19 0.38q-0.61 0.13-1.24 0.13q-1.57 0-2.49-0.92q-0.91-0.91-0.91-2.47q0-1.61 0.87-2.55q0.87-0.95 2.35-0.95q1.32 0 2.09 0.85q0.77 0.85 0.77 2.32zm-4.92-0.31l3.84-0.01q-0.01-0.88-0.5-1.41q-0.48-0.53-1.27-0.53q-0.91 0-1.45 0.51q-0.54 0.51-0.62 1.44zm8.99-5.26h1.02v0.9h-1.03q-0.58 0-0.81 0.23q-0.22 0.24-0.22 0.85v0.58h1.78v0.83h-1.78v5.73h-1.08v-5.73h-1.04v-0.83h1.04v-0.46q0-1.1 0.51-1.6q0.51-0.5 1.61-0.5zm7.54 5.57v0.52h-4.96q0.07 1.12 0.67 1.7q0.6 0.58 1.67 0.58q0.63 0 1.21-0.15q0.58-0.15 1.16-0.46v1.02q-0.58 0.25-1.19 0.38q-0.61 0.13-1.24 0.13q-1.57 0-2.49-0.92q-0.91-0.91-0.91-2.47q0-1.61 0.86-2.55q0.88-0.95 2.35-0.95q1.33 0 2.09 0.85q0.78 0.85 0.78 2.32zm-4.92-0.31l3.84-0.01q-0.01-0.88-0.5-1.41q-0.48-0.53-1.28-0.53q-0.9 0-1.44 0.51q-0.54 0.51-0.62 1.44zm10.48-2.8l0.01 1.1q-0.18-0.1-0.4-0.15q-0.21-0.05-0.47-0.05q-0.91 0-1.4 0.6q-0.49 0.59-0.49 1.7v3.46h-1.08v-6.56h1.08v1.02q0.34-0.6 0.89-0.89q0.54-0.29 1.32-0.29q0.11 0 0.25 0.01q0.13 0.02 0.29 0.05zm9.68 0.35v1.01q-0.46-0.26-0.92-0.38q-0.46-0.13-0.93-0.13q-1.05 0-1.63 0.67q-0.58 0.66-0.58 1.86q0 1.2 0.58 1.87q0.58 0.66 1.63 0.66q0.47 0 0.93-0.12q0.46-0.13 0.92-0.38v1q-0.45 0.21-0.94 0.31q-0.48 0.11-1.02 0.11q-1.49 0-2.36-0.93q-0.87-0.94-0.87-2.52q0-1.6 0.88-2.52q0.88-0.92 2.42-0.92q0.49 0 0.97 0.1q0.47 0.1 0.92 0.31zm5.93 3.01h-1.07q-1.31 0-1.82 0.3q-0.5 0.3-0.5 1.02q0 0.57 0.38 0.91q0.38 0.34 1.03 0.34q0.89 0 1.43-0.64q0.55-0.64 0.55-1.69zm1.08-0.45v3.75h-1.08v-1q-0.37 0.6-0.92 0.89q-0.55 0.28-1.35 0.28q-1.01 0-1.61-0.56q-0.59-0.57-0.59-1.52q0-1.11 0.74-1.67q0.75-0.56 2.22-0.56h1.51v-0.11q0-0.74-0.49-1.15q-0.49-0.41-1.38-0.41q-0.56 0-1.09 0.14q-0.53 0.13-1.03 0.4v-1q0.6-0.22 1.15-0.34q0.56-0.11 1.09-0.11q1.42 0 2.12 0.74q0.71 0.73 0.71 2.23zm6.01-2.91l0.01 1.1q-0.18-0.1-0.4-0.15q-0.21-0.05-0.47-0.05q-0.91 0-1.4 0.6q-0.49 0.59-0.49 1.7v3.46h-1.08v-6.56h1.08v1.02q0.34-0.6 0.88-0.89q0.55-0.29 1.33-0.29q0.11 0 0.24 0.02q0.14 0.01 0.3 0.04zm6.49 3.11v0.52h-4.96q0.07 1.12 0.67 1.7q0.6 0.58 1.68 0.58q0.62 0 1.2-0.15q0.58-0.15 1.16-0.46v1.02q-0.58 0.25-1.19 0.38q-0.61 0.13-1.24 0.13q-1.57 0-2.49-0.92q-0.91-0.91-0.91-2.47q0-1.61 0.86-2.55q0.88-0.95 2.35-0.95q1.33 0 2.1 0.85q0.77 0.85 0.77 2.32zm-4.92-0.31l3.84-0.01q-0.01-0.88-0.5-1.41q-0.48-0.53-1.27-0.53q-0.91 0-1.45 0.51q-0.54 0.51-0.62 1.44zm8.99-5.26h1.02v0.9h-1.03q-0.58 0-0.81 0.23q-0.22 0.24-0.22 0.85v0.58h1.77v0.83h-1.77v5.73h-1.08v-5.73h-1.04v-0.83h1.04v-0.46q0-1.1 0.5-1.6q0.51-0.5 1.62-0.5zm1.81 6.53v-3.97h1.08v3.93q0 0.93 0.36 1.4q0.37 0.46 1.09 0.46q0.88 0 1.38-0.56q0.51-0.55 0.51-1.51v-3.72h1.08v6.56h-1.08v-1.01q-0.39 0.6-0.91 0.89q-0.52 0.29-1.2 0.29q-1.14 0-1.72-0.7q-0.59-0.71-0.59-2.06zm2.72-4.13zm5 6.72v-9.12h1.08v9.12zm3.33 0v-9.12h1.08v9.12zm8.95-6.56l-2.89 7.17q-0.45 1.17-0.89 1.53q-0.43 0.35-1.16 0.35h-0.86v-0.9h0.63q0.45 0 0.7-0.21q0.24-0.21 0.54-1l0.19-0.49l-2.65-6.45h1.14l2.05 5.13l2.05-5.13zm5.29-1.87h1.08v1.87h2.22v0.83h-2.22v3.57q0 0.8 0.22 1.03q0.22 0.23 0.9 0.23h1.1v0.9h-1.1q-1.25 0-1.73-0.46q-0.47-0.47-0.47-1.7v-3.57h-0.79v-0.83h0.79zm7.27 2.61q-0.87 0-1.38 0.68q-0.5 0.68-0.5 1.86q0 1.17 0.5 1.85q0.5 0.68 1.38 0.68q0.86 0 1.36-0.68q0.5-0.68 0.5-1.85q0-1.17-0.5-1.85q-0.5-0.69-1.36-0.69zm0-0.91q1.4 0 2.2 0.91q0.81 0.92 0.81 2.54q0 1.61-0.81 2.53q-0.8 0.91-2.2 0.91q-1.42 0-2.22-0.91q-0.8-0.92-0.8-2.53q0-1.62 0.8-2.54q0.8-0.91 2.22-0.91zm8.61 6.72v-6.56h1.08v6.56zm0-7.75v-1.37h1.07v1.37zm3.32-0.67h1.08v1.86h2.23v0.84h-2.23v3.56q0 0.8 0.22 1.03q0.22 0.23 0.9 0.23h1.11v0.9h-1.11q-1.25 0-1.72-0.46q-0.48-0.47-0.48-1.7v-3.56h-0.79v-0.84h0.79zm4.88 8.42v-1.48h1.23v1.48z" /><path fill="#ff0000" aria-label="Only the «campus name» and «Company name» layers are "  d="m-341.43-261.95q-1.29 0-2.06 0.97q-0.75 0.96-0.75 2.61q0 1.66 0.75 2.62q0.77 0.96 2.06 0.96q1.28 0 2.03-0.96q0.76-0.96 0.76-2.62q0-1.65-0.76-2.61q-0.75-0.97-2.03-0.97zm0-0.96q1.84 0 2.94 1.24q1.1 1.23 1.1 3.3q0 2.07-1.1 3.31q-1.1 1.23-2.94 1.23q-1.85 0-2.96-1.23q-1.1-1.23-1.1-3.31q0-2.07 1.1-3.3q1.11-1.24 2.96-1.24zm11.3 4.95v3.96h-1.08v-3.93q0-0.93-0.36-1.39q-0.37-0.46-1.09-0.46q-0.88 0-1.38 0.55q-0.5 0.56-0.5 1.52v3.71h-1.09v-6.56h1.09v1.02q0.38-0.59 0.9-0.89q0.53-0.29 1.22-0.29q1.13 0 1.71 0.7q0.58 0.7 0.58 2.06zm2.15 3.96v-9.12h1.08v9.12zm8.94-6.56l-2.88 7.17q-0.46 1.17-0.89 1.53q-0.43 0.36-1.16 0.36h-0.86v-0.91h0.63q0.45 0 0.69-0.21q0.25-0.21 0.55-0.99l0.19-0.5l-2.65-6.45h1.14l2.05 5.13l2.05-5.13zm5.29-1.87h1.08v1.87h2.22v0.84h-2.22v3.56q0 0.8 0.22 1.03q0.22 0.23 0.89 0.23h1.11v0.9h-1.11q-1.24 0-1.72-0.46q-0.47-0.47-0.47-1.7v-3.56h-0.79v-0.84h0.79zm10.17 4.46v3.96h-1.07v-3.92q0-0.93-0.37-1.4q-0.36-0.46-1.09-0.46q-0.87 0-1.37 0.56q-0.51 0.55-0.51 1.51v3.71h-1.08v-9.11h1.08v3.57q0.39-0.59 0.91-0.88q0.53-0.3 1.21-0.3q1.13 0 1.71 0.71q0.58 0.69 0.58 2.05zm7.77 0.41v0.53h-4.96q0.07 1.11 0.67 1.7q0.6 0.58 1.67 0.58q0.63 0 1.21-0.15q0.58-0.16 1.16-0.46v1.02q-0.58 0.25-1.19 0.37q-0.61 0.13-1.24 0.13q-1.57 0-2.49-0.91q-0.91-0.91-0.91-2.47q0-1.61 0.86-2.56q0.88-0.95 2.35-0.95q1.33 0 2.09 0.86q0.78 0.85 0.78 2.31zm-4.92-0.31h3.84q-0.01-0.89-0.5-1.42q-0.48-0.52-1.28-0.52q-0.9 0-1.44 0.51q-0.54 0.51-0.62 1.43zm12.84 0.11l2.75-2.45v1.12l-1.77 1.57l1.77 1.57v1.12l-2.75-2.45zm-2.54 0l2.74-2.45v1.12l-1.76 1.57l1.76 1.57v1.12l-2.74-2.45zm12.27-2.56v1.01q-0.46-0.25-0.92-0.37q-0.46-0.13-0.93-0.13q-1.05 0-1.63 0.67q-0.58 0.66-0.58 1.86q0 1.2 0.58 1.87q0.58 0.66 1.63 0.66q0.47 0 0.93-0.12q0.46-0.13 0.92-0.38v0.99q-0.45 0.21-0.94 0.32q-0.48 0.1-1.03 0.1q-1.48 0-2.35-0.93q-0.88-0.93-0.88-2.51q0-1.61 0.88-2.53q0.89-0.92 2.42-0.92q0.5 0 0.98 0.11q0.47 0.1 0.92 0.3zm5.93 3.02h-1.08q-1.3 0-1.81 0.29q-0.5 0.3-0.5 1.02q0 0.58 0.37 0.92q0.39 0.33 1.04 0.33q0.89 0 1.43-0.63q0.55-0.64 0.55-1.69zm1.07-0.45v3.74h-1.07v-0.99q-0.37 0.6-0.92 0.88q-0.55 0.28-1.35 0.28q-1.01 0-1.61-0.56q-0.59-0.57-0.59-1.52q0-1.1 0.74-1.67q0.74-0.56 2.21-0.56h1.52v-0.1q0-0.75-0.5-1.15q-0.48-0.41-1.37-0.41q-0.56 0-1.09 0.13q-0.54 0.14-1.03 0.41v-1q0.59-0.23 1.15-0.34q0.56-0.12 1.08-0.12q1.43 0 2.13 0.74q0.7 0.74 0.7 2.24zm7.33-1.56q0.41-0.72 0.97-1.07q0.56-0.35 1.33-0.35q1.02 0 1.58 0.72q0.55 0.72 0.55 2.04v3.96h-1.08v-3.92q0-0.94-0.33-1.4q-0.34-0.46-1.02-0.46q-0.84 0-1.33 0.56q-0.48 0.55-0.48 1.52v3.7h-1.09v-3.92q0-0.95-0.33-1.4q-0.34-0.46-1.03-0.46q-0.83 0-1.32 0.56q-0.48 0.56-0.48 1.52v3.7h-1.09v-6.56h1.09v1.02q0.37-0.6 0.88-0.89q0.52-0.29 1.23-0.29q0.71 0 1.21 0.37q0.5 0.36 0.74 1.05zm7.63 4.32v3.48h-1.09v-9.06h1.09v1q0.34-0.59 0.85-0.87q0.52-0.29 1.24-0.29q1.2 0 1.94 0.95q0.75 0.95 0.75 2.5q0 1.55-0.75 2.5q-0.74 0.94-1.94 0.94q-0.72 0-1.24-0.28q-0.51-0.28-0.85-0.87zm3.67-2.29q0-1.19-0.5-1.86q-0.48-0.68-1.34-0.68q-0.85 0-1.35 0.68q-0.48 0.67-0.48 1.86q0 1.19 0.48 1.87q0.5 0.67 1.35 0.67q0.86 0 1.34-0.67q0.5-0.68 0.5-1.87zm2.79 0.68v-3.97h1.08v3.93q0 0.94 0.36 1.4q0.36 0.47 1.09 0.47q0.87 0 1.38-0.56q0.51-0.56 0.51-1.52v-3.72h1.08v6.56h-1.08v-1q-0.39 0.59-0.92 0.89q-0.51 0.28-1.2 0.28q-1.13 0-1.71-0.7q-0.59-0.7-0.59-2.06zm2.71-4.13zm9.19 0.36v1.01q-0.46-0.23-0.95-0.35q-0.49-0.11-1.02-0.11q-0.8 0-1.21 0.24q-0.39 0.25-0.39 0.74q0 0.38 0.28 0.59q0.29 0.21 1.16 0.41l0.37 0.08q1.15 0.24 1.63 0.7q0.48 0.44 0.48 1.24q0 0.92-0.72 1.45q-0.73 0.53-1.99 0.53q-0.53 0-1.1-0.1q-0.57-0.1-1.2-0.31v-1.11q0.59 0.31 1.17 0.47q0.58 0.15 1.15 0.15q0.76 0 1.17-0.26q0.41-0.26 0.41-0.73q0-0.44-0.29-0.68q-0.3-0.23-1.3-0.45l-0.37-0.09q-1.01-0.21-1.45-0.64q-0.45-0.44-0.45-1.2q0-0.93 0.66-1.43q0.66-0.51 1.86-0.51q0.6 0 1.13 0.09q0.53 0.09 0.97 0.27zm11.34 2.4v3.96h-1.08v-3.92q0-0.93-0.36-1.4q-0.37-0.46-1.09-0.46q-0.88 0-1.38 0.56q-0.5 0.55-0.5 1.52v3.7h-1.09v-6.56h1.09v1.02q0.38-0.59 0.9-0.88q0.53-0.3 1.22-0.3q1.13 0 1.71 0.71q0.58 0.69 0.58 2.05zm6.2 0.67h-1.07q-1.31 0-1.81 0.29q-0.5 0.3-0.5 1.02q0 0.58 0.37 0.92q0.38 0.33 1.03 0.33q0.9 0 1.44-0.63q0.54-0.64 0.54-1.69zm1.08-0.45v3.74h-1.08v-0.99q-0.37 0.6-0.92 0.88q-0.55 0.28-1.34 0.28q-1.01 0-1.61-0.56q-0.59-0.57-0.59-1.52q0-1.1 0.74-1.67q0.74-0.56 2.21-0.56h1.51v-0.1q0-0.75-0.49-1.15q-0.48-0.41-1.37-0.41q-0.56 0-1.1 0.13q-0.53 0.14-1.02 0.41v-1q0.59-0.23 1.15-0.34q0.55-0.12 1.08-0.12q1.43 0 2.13 0.74q0.7 0.74 0.7 2.24zm7.33-1.56q0.41-0.72 0.97-1.07q0.56-0.35 1.32-0.35q1.03 0 1.58 0.72q0.56 0.72 0.56 2.04v3.96h-1.08v-3.92q0-0.94-0.34-1.4q-0.33-0.46-1.02-0.46q-0.83 0-1.32 0.56q-0.49 0.55-0.49 1.52v3.7h-1.08v-3.92q0-0.95-0.33-1.4q-0.34-0.46-1.04-0.46q-0.82 0-1.31 0.56q-0.48 0.56-0.48 1.52v3.7h-1.09v-6.56h1.09v1.02q0.36-0.6 0.88-0.89q0.52-0.29 1.22-0.29q0.72 0 1.22 0.37q0.5 0.36 0.74 1.05zm12.2 1.75v0.53h-4.96q0.07 1.11 0.67 1.7q0.6 0.58 1.67 0.58q0.62 0 1.2-0.15q0.59-0.15 1.16-0.46v1.02q-0.58 0.25-1.19 0.38q-0.61 0.12-1.23 0.12q-1.57 0-2.49-0.91q-0.92-0.91-0.92-2.47q0-1.61 0.87-2.56q0.87-0.95 2.35-0.95q1.32 0 2.09 0.86q0.78 0.85 0.78 2.31zm-4.93-0.31h3.85q-0.01-0.89-0.5-1.41q-0.48-0.53-1.28-0.53q-0.9 0-1.45 0.51q-0.53 0.51-0.62 1.43zm6.69-1.22v-1.12l2.75 2.45v0.48l-2.75 2.45v-1.12l1.77-1.57zm2.54 0v-1.12l2.75 2.45v0.48l-2.75 2.45v-1.12l1.76-1.57zm12.67 1.79h-1.07q-1.31 0-1.81 0.3q-0.5 0.29-0.5 1.01q0 0.58 0.37 0.92q0.38 0.33 1.03 0.33q0.9 0 1.44-0.63q0.54-0.64 0.54-1.69zm1.08-0.45v3.75h-1.08v-1q-0.37 0.6-0.92 0.88q-0.55 0.29-1.34 0.29q-1.01 0-1.61-0.57q-0.59-0.57-0.59-1.51q0-1.11 0.74-1.67q0.74-0.57 2.21-0.57h1.51v-0.1q0-0.75-0.49-1.15q-0.49-0.41-1.37-0.41q-0.56 0-1.1 0.13q-0.53 0.14-1.02 0.41v-1q0.59-0.23 1.15-0.34q0.55-0.12 1.08-0.12q1.42 0 2.13 0.74q0.7 0.74 0.7 2.24zm7.68-0.22v3.97h-1.08v-3.93q0-0.93-0.36-1.39q-0.37-0.47-1.09-0.47q-0.88 0-1.38 0.56q-0.51 0.56-0.51 1.52v3.71h-1.08v-6.57h1.08v1.02q0.39-0.59 0.91-0.88q0.53-0.3 1.22-0.3q1.13 0 1.71 0.71q0.58 0.7 0.58 2.05zm6.47-1.6v-3.55h1.07v9.12h-1.07v-0.99q-0.34 0.59-0.87 0.87q-0.51 0.29-1.24 0.29q-1.19 0-1.94-0.95q-0.74-0.95-0.74-2.5q0-1.55 0.74-2.5q0.75-0.95 1.94-0.95q0.73 0 1.24 0.29q0.53 0.28 0.87 0.87zm-3.68 2.29q0 1.19 0.49 1.87q0.49 0.67 1.35 0.67q0.85 0 1.34-0.67q0.5-0.68 0.5-1.87q0-1.19-0.5-1.86q-0.49-0.68-1.34-0.68q-0.86 0-1.35 0.68q-0.49 0.67-0.49 1.86zm13.13-0.48l2.74-2.45v1.12l-1.76 1.57l1.76 1.57v1.12l-2.74-2.45zm-2.55 0l2.75-2.45v1.12l-1.76 1.57l1.76 1.57v1.12l-2.75-2.45zm13.94-4.32v1.25q-0.6-0.56-1.28-0.83q-0.67-0.28-1.44-0.28q-1.5 0-2.29 0.92q-0.8 0.92-0.8 2.65q0 1.73 0.8 2.65q0.79 0.91 2.29 0.91q0.77 0 1.44-0.27q0.68-0.28 1.28-0.83v1.23q-0.62 0.42-1.32 0.64q-0.69 0.21-1.47 0.21q-1.98 0-3.12-1.22q-1.15-1.22-1.15-3.32q0-2.11 1.15-3.32q1.14-1.22 3.12-1.22q0.79 0 1.48 0.21q0.7 0.21 1.31 0.62zm4.32 2.27q-0.87 0-1.37 0.68q-0.5 0.67-0.5 1.85q0 1.18 0.49 1.86q0.51 0.67 1.38 0.67q0.86 0 1.37-0.68q0.5-0.68 0.5-1.85q0-1.16-0.5-1.84q-0.51-0.69-1.37-0.69zm0-0.91q1.41 0 2.21 0.91q0.8 0.91 0.8 2.53q0 1.61-0.8 2.53q-0.8 0.92-2.21 0.92q-1.41 0-2.21-0.92q-0.8-0.92-0.8-2.53q0-1.62 0.8-2.53q0.8-0.91 2.21-0.91zm9.91 1.41q0.4-0.72 0.97-1.07q0.56-0.34 1.32-0.34q1.03 0 1.58 0.72q0.56 0.71 0.56 2.04v3.96h-1.08v-3.93q0-0.94-0.34-1.4q-0.33-0.46-1.02-0.46q-0.84 0-1.32 0.56q-0.49 0.56-0.49 1.52v3.71h-1.08v-3.93q0-0.95-0.34-1.4q-0.33-0.46-1.03-0.46q-0.82 0-1.31 0.57q-0.49 0.55-0.49 1.51v3.71h-1.08v-6.57h1.08v1.02q0.37-0.6 0.89-0.89q0.51-0.28 1.22-0.28q0.72 0 1.22 0.36q0.5 0.36 0.74 1.05zm7.62 4.32v3.48h-1.08v-9.06h1.08v1q0.34-0.59 0.86-0.87q0.52-0.28 1.24-0.28q1.2 0 1.94 0.94q0.75 0.95 0.75 2.5q0 1.55-0.75 2.5q-0.74 0.95-1.94 0.95q-0.72 0-1.24-0.28q-0.52-0.29-0.86-0.88zm3.67-2.29q0-1.19-0.49-1.86q-0.49-0.68-1.34-0.68q-0.86 0-1.35 0.68q-0.49 0.67-0.49 1.86q0 1.19 0.49 1.87q0.49 0.67 1.35 0.67q0.85 0 1.34-0.67q0.49-0.68 0.49-1.87zm6.96-0.02h-1.07q-1.31 0-1.81 0.3q-0.5 0.3-0.5 1.02q0 0.57 0.37 0.91q0.38 0.33 1.03 0.33q0.9 0 1.44-0.63q0.54-0.64 0.54-1.69zm1.08-0.45v3.75h-1.08v-1q-0.37 0.6-0.92 0.89q-0.55 0.28-1.35 0.28q-1 0-1.6-0.57q-0.59-0.56-0.59-1.51q0-1.11 0.74-1.67q0.74-0.57 2.21-0.57h1.51v-0.1q0-0.75-0.49-1.15q-0.49-0.41-1.37-0.41q-0.56 0-1.1 0.13q-0.53 0.14-1.02 0.41v-1q0.59-0.23 1.15-0.34q0.55-0.11 1.08-0.11q1.42 0 2.13 0.73q0.7 0.74 0.7 2.24zm7.68-0.21v3.96h-1.08v-3.93q0-0.93-0.37-1.39q-0.36-0.47-1.09-0.47q-0.87 0-1.37 0.56q-0.51 0.56-0.51 1.52v3.71h-1.08v-6.57h1.08v1.02q0.39-0.59 0.91-0.88q0.53-0.29 1.21-0.29q1.14 0 1.72 0.7q0.58 0.7 0.58 2.06zm7.76-2.61l-2.88 7.18q-0.46 1.17-0.89 1.53q-0.44 0.35-1.16 0.35h-0.87v-0.9h0.64q0.44 0 0.69-0.21q0.24-0.21 0.54-1l0.2-0.49l-2.66-6.46h1.15l2.05 5.14l2.05-5.14zm10.75 2.61v3.96h-1.07v-3.93q0-0.93-0.37-1.39q-0.36-0.47-1.09-0.47q-0.87 0-1.37 0.56q-0.51 0.56-0.51 1.52v3.71h-1.08v-6.57h1.08v1.02q0.39-0.59 0.91-0.88q0.53-0.29 1.21-0.29q1.13 0 1.71 0.7q0.58 0.7 0.58 2.06zm6.21 0.66h-1.07q-1.31 0-1.81 0.3q-0.51 0.3-0.51 1.02q0 0.57 0.38 0.91q0.38 0.33 1.03 0.33q0.9 0 1.43-0.63q0.55-0.64 0.55-1.69zm1.08-0.45v3.75h-1.08v-1q-0.37 0.6-0.92 0.89q-0.55 0.28-1.35 0.28q-1.01 0-1.6-0.57q-0.6-0.56-0.6-1.51q0-1.11 0.74-1.67q0.75-0.57 2.22-0.57h1.51v-0.1q0-0.75-0.49-1.15q-0.49-0.41-1.37-0.41q-0.57 0-1.1 0.14q-0.53 0.13-1.02 0.4v-1q0.59-0.23 1.14-0.34q0.56-0.11 1.09-0.11q1.42 0 2.12 0.73q0.71 0.74 0.71 2.24zm7.33-1.56q0.4-0.72 0.96-1.07q0.57-0.34 1.33-0.34q1.02 0 1.58 0.72q0.56 0.71 0.56 2.04v3.96h-1.09v-3.93q0-0.94-0.33-1.4q-0.33-0.46-1.02-0.46q-0.84 0-1.32 0.56q-0.49 0.56-0.49 1.52v3.71h-1.08v-3.93q0-0.95-0.34-1.4q-0.33-0.46-1.03-0.46q-0.83 0-1.31 0.57q-0.49 0.55-0.49 1.51v3.71h-1.08v-6.57h1.08v1.02q0.37-0.6 0.89-0.89q0.51-0.28 1.22-0.28q0.72 0 1.21 0.36q0.51 0.36 0.75 1.05zm12.19 1.76v0.52h-4.96q0.07 1.12 0.67 1.7q0.61 0.58 1.68 0.58q0.62 0 1.2-0.15q0.59-0.15 1.16-0.46v1.02q-0.58 0.25-1.19 0.38q-0.61 0.13-1.24 0.13q-1.57 0-2.49-0.92q-0.91-0.91-0.91-2.47q0-1.61 0.87-2.55q0.87-0.95 2.35-0.95q1.32 0 2.09 0.85q0.77 0.85 0.77 2.32zm-4.92-0.31l3.84-0.01q-0.01-0.89-0.49-1.41q-0.49-0.53-1.28-0.53q-0.9 0-1.45 0.51q-0.54 0.51-0.62 1.44zm6.69-1.23v-1.12l2.75 2.45v0.48l-2.75 2.45v-1.12l1.76-1.57zm2.55 0v-1.12l2.75 2.45v0.48l-2.75 2.45v-1.12l1.76-1.57zm8.61 5.09v-9.12h1.08v9.12zm7.39-3.3h-1.07q-1.31 0-1.81 0.3q-0.51 0.3-0.51 1.02q0 0.57 0.38 0.91q0.38 0.34 1.03 0.34q0.9 0 1.44-0.64q0.54-0.64 0.54-1.69zm1.08-0.45v3.75h-1.08v-1q-0.37 0.6-0.92 0.89q-0.55 0.28-1.35 0.28q-1 0-1.6-0.56q-0.59-0.57-0.59-1.52q0-1.11 0.73-1.67q0.75-0.56 2.22-0.56h1.51v-0.11q0-0.74-0.49-1.15q-0.49-0.41-1.37-0.41q-0.56 0-1.1 0.14q-0.53 0.13-1.02 0.4v-1q0.59-0.22 1.15-0.34q0.55-0.11 1.08-0.11q1.42 0 2.13 0.74q0.7 0.73 0.7 2.23zm7.83-2.81l-2.88 7.17q-0.46 1.17-0.89 1.53q-0.43 0.35-1.16 0.35h-0.86v-0.9h0.63q0.45 0 0.69-0.21q0.25-0.21 0.55-1l0.19-0.49l-2.65-6.45h1.14l2.05 5.13l2.05-5.13zm7.1 3.01v0.52h-4.95q0.07 1.12 0.66 1.7q0.61 0.58 1.68 0.58q0.62 0 1.2-0.15q0.59-0.15 1.16-0.46v1.02q-0.58 0.25-1.19 0.38q-0.61 0.13-1.24 0.13q-1.57 0-2.49-0.92q-0.91-0.91-0.91-2.47q0-1.61 0.87-2.55q0.87-0.95 2.35-0.95q1.32 0 2.09 0.85q0.77 0.85 0.77 2.32zm-4.92-0.31l3.84-0.01q-0.01-0.88-0.49-1.41q-0.48-0.53-1.28-0.53q-0.9 0-1.45 0.51q-0.54 0.51-0.62 1.44zm10.49-2.8v1.1q-0.18-0.1-0.39-0.15q-0.21-0.05-0.47-0.05q-0.92 0-1.41 0.6q-0.49 0.59-0.49 1.7v3.46h-1.08v-6.56h1.08v1.01q0.34-0.59 0.89-0.88q0.54-0.29 1.32-0.29q0.12 0 0.25 0.01q0.13 0.02 0.3 0.05zm5.32 0.29v1.02q-0.46-0.24-0.95-0.35q-0.49-0.12-1.02-0.12q-0.8 0-1.21 0.25q-0.4 0.24-0.4 0.73q0 0.38 0.29 0.6q0.29 0.21 1.16 0.4l0.37 0.08q1.14 0.25 1.62 0.7q0.49 0.44 0.49 1.25q0 0.91-0.73 1.44q-0.72 0.54-1.98 0.54q-0.53 0-1.1-0.1q-0.57-0.11-1.21-0.31v-1.12q0.6 0.31 1.18 0.47q0.58 0.16 1.15 0.16q0.76 0 1.17-0.26q0.41-0.27 0.41-0.74q0-0.44-0.3-0.67q-0.29-0.24-1.29-0.46l-0.38-0.08q-1-0.21-1.44-0.65q-0.45-0.44-0.45-1.2q0-0.93 0.66-1.43q0.65-0.5 1.86-0.5q0.6 0 1.13 0.08q0.52 0.09 0.97 0.27zm9.94 3.07h-1.08q-1.3 0-1.81 0.3q-0.5 0.3-0.5 1.02q0 0.57 0.37 0.91q0.39 0.34 1.04 0.34q0.89 0 1.43-0.64q0.55-0.64 0.55-1.69zm1.07-0.45v3.75h-1.07v-1q-0.37 0.6-0.92 0.89q-0.55 0.28-1.35 0.28q-1.01 0-1.61-0.56q-0.59-0.57-0.59-1.52q0-1.11 0.74-1.67q0.74-0.56 2.21-0.56h1.52v-0.11q0-0.74-0.5-1.15q-0.48-0.41-1.37-0.41q-0.56 0-1.09 0.14q-0.54 0.13-1.03 0.4v-1q0.59-0.22 1.15-0.34q0.56-0.11 1.08-0.11q1.43 0 2.13 0.74q0.7 0.73 0.7 2.23zm6.02-2.91l0.01 1.1q-0.18-0.1-0.4-0.15q-0.21-0.05-0.47-0.05q-0.91 0-1.41 0.6q-0.48 0.59-0.48 1.7v3.46h-1.09v-6.56h1.09v1.02q0.34-0.6 0.88-0.89q0.55-0.29 1.33-0.29q0.11 0 0.24 0.01q0.14 0.02 0.3 0.05zm6.49 3.11v0.52h-4.96q0.07 1.12 0.67 1.7q0.6 0.58 1.68 0.58q0.62 0 1.2-0.15q0.58-0.15 1.16-0.46v1.02q-0.58 0.25-1.19 0.38q-0.61 0.13-1.24 0.13q-1.57 0-2.49-0.92q-0.91-0.91-0.91-2.47q0-1.61 0.86-2.55q0.88-0.95 2.35-0.95q1.33 0 2.1 0.85q0.77 0.85 0.77 2.32zm-4.92-0.31l3.84-0.01q-0.01-0.88-0.5-1.41q-0.48-0.53-1.28-0.53q-0.9 0-1.44 0.51q-0.54 0.51-0.62 1.44z" /><path fill="#ff0000" aria-label="editable."  d="m-339.42-238.55v0.53h-4.96q0.07 1.11 0.67 1.7q0.61 0.58 1.68 0.58q0.62 0 1.2-0.16q0.58-0.15 1.16-0.45v1.02q-0.58 0.24-1.19 0.37q-0.61 0.13-1.24 0.13q-1.57 0-2.49-0.91q-0.91-0.92-0.91-2.48q0-1.61 0.87-2.55q0.87-0.95 2.35-0.95q1.32 0 2.09 0.85q0.77 0.85 0.77 2.32zm-4.92-0.31l3.84-0.01q-0.01-0.88-0.5-1.41q-0.48-0.53-1.27-0.53q-0.9 0-1.45 0.51q-0.54 0.51-0.62 1.44zm11.01-1.71v-3.55h1.08v9.12h-1.08v-0.98q-0.34 0.58-0.86 0.87q-0.52 0.28-1.24 0.28q-1.19 0-1.94-0.95q-0.75-0.95-0.75-2.5q0-1.54 0.75-2.49q0.75-0.95 1.94-0.95q0.72 0 1.24 0.29q0.52 0.28 0.86 0.86zm-3.67 2.29q0 1.19 0.48 1.87q0.49 0.68 1.35 0.68q0.85 0 1.35-0.68q0.49-0.68 0.49-1.87q0-1.18-0.49-1.86q-0.5-0.68-1.35-0.68q-0.86 0-1.35 0.68q-0.48 0.68-0.48 1.86zm6.97 3.28v-6.56h1.08v6.56zm0-7.75v-1.37h1.07v1.37zm3.32-0.68h1.08v1.87h2.23v0.84h-2.23v3.56q0 0.8 0.22 1.03q0.22 0.23 0.9 0.23h1.11v0.9h-1.11q-1.25 0-1.72-0.46q-0.48-0.47-0.48-1.7v-3.56h-0.79v-0.84h0.79zm8.78 5.12h-1.07q-1.31 0-1.82 0.3q-0.5 0.3-0.5 1.02q0 0.58 0.38 0.92q0.38 0.33 1.03 0.33q0.89 0 1.43-0.63q0.55-0.64 0.55-1.7zm1.08-0.44v3.74h-1.08v-0.99q-0.37 0.6-0.92 0.88q-0.55 0.28-1.35 0.28q-1.01 0-1.61-0.56q-0.59-0.57-0.59-1.52q0-1.1 0.74-1.67q0.75-0.56 2.22-0.56h1.51v-0.1q0-0.75-0.49-1.15q-0.49-0.41-1.38-0.41q-0.56 0-1.09 0.13q-0.53 0.14-1.03 0.41v-1q0.6-0.23 1.15-0.34q0.56-0.12 1.09-0.12q1.42 0 2.12 0.74q0.71 0.74 0.71 2.24zm6.93 0.47q0-1.19-0.49-1.87q-0.49-0.67-1.35-0.67q-0.85 0-1.34 0.67q-0.49 0.68-0.49 1.87q0 1.19 0.49 1.87q0.49 0.67 1.34 0.67q0.86 0 1.35-0.67q0.49-0.68 0.49-1.87zm-3.67-5.84v3.55q0.34-0.59 0.86-0.87q0.52-0.29 1.24-0.29q1.19 0 1.94 0.95q0.75 0.95 0.75 2.5q0 1.55-0.75 2.49q-0.75 0.95-1.94 0.95q-0.72 0-1.24-0.28q-0.52-0.28-0.86-0.87v0.98h-1.08v-9.11zm6.57 9.11v-9.11h1.08v9.11zm8.95-3.55v0.53h-4.96q0.07 1.11 0.67 1.7q0.6 0.58 1.67 0.58q0.62 0 1.2-0.15q0.59-0.16 1.16-0.46v1.02q-0.58 0.25-1.19 0.37q-0.61 0.13-1.23 0.13q-1.57 0-2.49-0.91q-0.92-0.91-0.92-2.47q0-1.61 0.87-2.56q0.87-0.95 2.35-0.95q1.32 0 2.09 0.86q0.78 0.85 0.78 2.31zm-4.93-0.31h3.85q-0.01-0.89-0.5-1.42q-0.48-0.52-1.28-0.52q-0.9 0-1.45 0.51q-0.53 0.51-0.62 1.43zm6.85 3.86v-1.48h1.23v1.48z" /><path fill="#ff0000" aria-label="Please do not move any elements ont this template."  d="m-342.31-223.78h-1.49v3.29h1.49q0.82 0 1.27-0.43q0.46-0.42 0.46-1.21q0-0.79-0.46-1.22q-0.45-0.43-1.27-0.43zm-2.68 7.78v-8.75h2.68q1.47 0 2.22 0.67q0.75 0.66 0.75 1.95q0 1.29-0.75 1.95q-0.75 0.66-2.22 0.66h-1.49v3.52zm7.19 0v-9.12h1.08v9.12zm8.94-3.55v0.53h-4.95q0.07 1.11 0.66 1.7q0.61 0.58 1.68 0.58q0.62 0 1.2-0.16q0.59-0.15 1.16-0.45v1.02q-0.58 0.24-1.19 0.37q-0.61 0.13-1.23 0.13q-1.57 0-2.49-0.91q-0.92-0.92-0.92-2.48q0-1.61 0.87-2.55q0.87-0.95 2.35-0.95q1.32 0 2.09 0.85q0.77 0.85 0.77 2.32zm-4.92-0.31l3.84-0.01q-0.01-0.88-0.49-1.41q-0.48-0.53-1.28-0.53q-0.9 0-1.45 0.51q-0.54 0.51-0.62 1.44zm10.75 0.56h-1.07q-1.31 0-1.82 0.3q-0.5 0.3-0.5 1.02q0 0.57 0.38 0.91q0.38 0.34 1.03 0.34q0.89 0 1.43-0.64q0.55-0.63 0.55-1.69zm1.08-0.44v3.74h-1.08v-1q-0.37 0.6-0.92 0.89q-0.55 0.28-1.35 0.28q-1.01 0-1.61-0.56q-0.59-0.57-0.59-1.52q0-1.11 0.74-1.67q0.74-0.56 2.22-0.56h1.51v-0.11q0-0.74-0.49-1.15q-0.49-0.41-1.38-0.41q-0.56 0-1.09 0.14q-0.53 0.13-1.03 0.4v-0.99q0.59-0.23 1.15-0.34q0.56-0.12 1.09-0.12q1.42 0 2.12 0.74q0.71 0.74 0.71 2.24zm6.4-2.63v1.02q-0.46-0.23-0.95-0.35q-0.49-0.12-1.02-0.12q-0.8 0-1.21 0.25q-0.39 0.24-0.39 0.74q0 0.37 0.28 0.59q0.29 0.21 1.16 0.4l0.37 0.08q1.14 0.25 1.62 0.7q0.49 0.45 0.49 1.25q0 0.91-0.73 1.45q-0.72 0.53-1.98 0.53q-0.53 0-1.1-0.1q-0.57-0.1-1.2-0.31v-1.11q0.59 0.31 1.17 0.47q0.58 0.15 1.15 0.15q0.76 0 1.17-0.26q0.41-0.26 0.41-0.74q0-0.44-0.29-0.67q-0.3-0.24-1.3-0.45l-0.37-0.09q-1.01-0.21-1.45-0.65q-0.45-0.44-0.45-1.2q0-0.92 0.66-1.43q0.66-0.5 1.86-0.5q0.6 0 1.13 0.09q0.52 0.09 0.97 0.26zm7.68 2.82v0.53h-4.96q0.07 1.11 0.67 1.7q0.61 0.58 1.68 0.58q0.62 0 1.2-0.16q0.59-0.15 1.16-0.45v1.02q-0.58 0.24-1.19 0.37q-0.61 0.13-1.24 0.13q-1.57 0-2.49-0.91q-0.91-0.92-0.91-2.48q0-1.61 0.87-2.55q0.87-0.95 2.35-0.95q1.32 0 2.09 0.85q0.77 0.85 0.77 2.32zm-4.92-0.31l3.84-0.01q-0.01-0.88-0.49-1.41q-0.49-0.53-1.28-0.53q-0.9 0-1.45 0.51q-0.54 0.51-0.62 1.44zm14.82-1.71v-3.55h1.08v9.12h-1.08v-0.98q-0.34 0.58-0.86 0.87q-0.51 0.28-1.24 0.28q-1.19 0-1.94-0.95q-0.74-0.95-0.74-2.5q0-1.54 0.74-2.49q0.75-0.95 1.94-0.95q0.73 0 1.24 0.29q0.52 0.28 0.86 0.86zm-3.67 2.29q0 1.19 0.49 1.87q0.49 0.68 1.34 0.68q0.86 0 1.35-0.68q0.49-0.68 0.49-1.87q0-1.18-0.49-1.86q-0.49-0.68-1.35-0.68q-0.85 0-1.34 0.68q-0.49 0.68-0.49 1.86zm9.52-2.53q-0.87 0-1.38 0.68q-0.5 0.68-0.5 1.85q0 1.18 0.5 1.86q0.5 0.68 1.38 0.68q0.86 0 1.36-0.68q0.5-0.68 0.5-1.86q0-1.16-0.5-1.84q-0.5-0.69-1.36-0.69zm0-0.91q1.4 0 2.2 0.91q0.81 0.92 0.81 2.53q0 1.62-0.81 2.54q-0.8 0.91-2.2 0.91q-1.42 0-2.22-0.91q-0.8-0.92-0.8-2.54q0-1.61 0.8-2.53q0.8-0.91 2.22-0.91zm14.06 2.76v3.96h-1.07v-3.93q0-0.93-0.37-1.39q-0.36-0.46-1.09-0.46q-0.87 0-1.37 0.55q-0.51 0.56-0.51 1.52v3.71h-1.08v-6.56h1.08v1.02q0.39-0.59 0.91-0.89q0.53-0.29 1.21-0.29q1.13 0 1.71 0.7q0.58 0.7 0.58 2.06zm4.7-1.85q-0.87 0-1.37 0.68q-0.51 0.68-0.51 1.85q0 1.18 0.5 1.86q0.5 0.68 1.38 0.68q0.86 0 1.36-0.68q0.51-0.68 0.51-1.86q0-1.16-0.51-1.84q-0.5-0.69-1.36-0.69zm0-0.91q1.4 0 2.21 0.91q0.8 0.92 0.8 2.53q0 1.62-0.8 2.54q-0.81 0.91-2.21 0.91q-1.41 0-2.22-0.91q-0.79-0.92-0.79-2.54q0-1.61 0.79-2.53q0.81-0.91 2.22-0.91zm4.78-1.71h1.08v1.87h2.22v0.84h-2.22v3.56q0 0.8 0.22 1.03q0.22 0.23 0.9 0.23h1.1v0.9h-1.1q-1.25 0-1.73-0.46q-0.47-0.47-0.47-1.7v-3.56h-0.79v-0.84h0.79zm13.64 3.12q0.41-0.73 0.97-1.07q0.56-0.35 1.33-0.35q1.02 0 1.58 0.72q0.55 0.72 0.55 2.04v3.96h-1.08v-3.92q0-0.95-0.33-1.4q-0.34-0.46-1.02-0.46q-0.84 0-1.33 0.56q-0.48 0.55-0.48 1.51v3.71h-1.09v-3.92q0-0.95-0.33-1.4q-0.34-0.46-1.03-0.46q-0.83 0-1.32 0.56q-0.48 0.56-0.48 1.51v3.71h-1.09v-6.56h1.09v1.02q0.37-0.6 0.88-0.89q0.52-0.29 1.23-0.29q0.71 0 1.21 0.37q0.5 0.36 0.74 1.05zm9.13-0.5q-0.87 0-1.37 0.68q-0.51 0.67-0.51 1.85q0 1.18 0.5 1.86q0.5 0.67 1.38 0.67q0.86 0 1.36-0.68q0.51-0.68 0.51-1.85q0-1.17-0.51-1.85q-0.5-0.68-1.36-0.68zm0-0.92q1.4 0 2.21 0.92q0.8 0.91 0.8 2.53q0 1.61-0.8 2.53q-0.81 0.91-2.21 0.91q-1.41 0-2.22-0.91q-0.79-0.92-0.79-2.53q0-1.62 0.79-2.53q0.81-0.92 2.22-0.92zm6.48 6.72l-2.46-6.56h1.15l2.05 5.51l2.05-5.51h1.14l-2.46 6.56zm11.03-3.55v0.53h-4.96q0.07 1.11 0.67 1.7q0.6 0.58 1.67 0.58q0.62 0 1.2-0.15q0.59-0.16 1.16-0.46v1.02q-0.58 0.25-1.18 0.37q-0.61 0.13-1.24 0.13q-1.57 0-2.49-0.91q-0.92-0.91-0.92-2.47q0-1.61 0.87-2.56q0.87-0.95 2.35-0.95q1.33 0 2.09 0.86q0.78 0.85 0.78 2.31zm-4.93-0.31h3.85q-0.01-0.89-0.5-1.42q-0.48-0.52-1.28-0.52q-0.9 0-1.44 0.51q-0.54 0.51-0.63 1.43zm14.57 0.56h-1.08q-1.3 0-1.81 0.3q-0.5 0.3-0.5 1.02q0 0.58 0.37 0.92q0.38 0.33 1.03 0.33q0.9 0 1.44-0.63q0.55-0.64 0.55-1.7zm1.07-0.44v3.74h-1.07v-0.99q-0.37 0.6-0.92 0.88q-0.56 0.28-1.35 0.28q-1.01 0-1.61-0.56q-0.59-0.57-0.59-1.52q0-1.1 0.74-1.67q0.74-0.56 2.21-0.56h1.52v-0.1q0-0.75-0.5-1.15q-0.48-0.41-1.37-0.41q-0.56 0-1.09 0.13q-0.54 0.14-1.03 0.41v-1q0.59-0.23 1.15-0.34q0.56-0.12 1.08-0.12q1.43 0 2.13 0.74q0.7 0.74 0.7 2.24zm7.68-0.22v3.96h-1.08v-3.92q0-0.93-0.36-1.4q-0.37-0.46-1.09-0.46q-0.88 0-1.38 0.56q-0.5 0.55-0.5 1.51v3.71h-1.09v-6.56h1.09v1.02q0.38-0.59 0.91-0.88q0.52-0.3 1.21-0.3q1.13 0 1.71 0.71q0.58 0.69 0.58 2.05zm7.76-2.6l-2.88 7.17q-0.46 1.17-0.89 1.53q-0.43 0.36-1.16 0.36h-0.86v-0.9h0.63q0.45 0 0.69-0.21q0.25-0.21 0.55-1l0.19-0.49l-2.65-6.46h1.14l2.05 5.13l2.05-5.13zm10.92 3.01v0.53h-4.96q0.07 1.11 0.67 1.7q0.6 0.58 1.67 0.58q0.62 0 1.2-0.15q0.59-0.16 1.16-0.46v1.02q-0.58 0.25-1.19 0.37q-0.6 0.13-1.23 0.13q-1.57 0-2.49-0.91q-0.92-0.91-0.92-2.47q0-1.61 0.87-2.56q0.87-0.95 2.35-0.95q1.33 0 2.09 0.86q0.78 0.85 0.78 2.31zm-4.93-0.31h3.85q-0.01-0.89-0.5-1.42q-0.48-0.52-1.28-0.52q-0.9 0-1.44 0.51q-0.54 0.51-0.63 1.43zm6.7 3.86v-9.11h1.07v9.11zm8.95-3.55v0.53h-4.96q0.07 1.11 0.67 1.7q0.61 0.58 1.68 0.58q0.62 0 1.2-0.15q0.58-0.16 1.16-0.46v1.02q-0.58 0.25-1.19 0.37q-0.61 0.13-1.24 0.13q-1.57 0-2.49-0.91q-0.91-0.91-0.91-2.47q0-1.61 0.87-2.56q0.87-0.95 2.35-0.95q1.32 0 2.09 0.86q0.77 0.85 0.77 2.31zm-4.92-0.31h3.84q-0.01-0.89-0.5-1.42q-0.48-0.52-1.27-0.52q-0.9 0-1.45 0.51q-0.54 0.51-0.62 1.43zm11.8-1.44q0.4-0.73 0.97-1.07q0.56-0.35 1.32-0.35q1.03 0 1.58 0.72q0.56 0.72 0.56 2.04v3.96h-1.08v-3.92q0-0.95-0.34-1.4q-0.33-0.46-1.02-0.46q-0.84 0-1.32 0.56q-0.49 0.55-0.49 1.51v3.71h-1.08v-3.92q0-0.95-0.34-1.4q-0.33-0.46-1.03-0.46q-0.82 0-1.31 0.56q-0.49 0.56-0.49 1.51v3.71h-1.08v-6.56h1.08v1.02q0.37-0.6 0.89-0.89q0.51-0.29 1.22-0.29q0.72 0 1.22 0.37q0.5 0.36 0.74 1.05zm12.19 1.75v0.53h-4.95q0.07 1.11 0.66 1.7q0.61 0.58 1.68 0.58q0.62 0 1.2-0.15q0.59-0.16 1.16-0.46v1.02q-0.58 0.25-1.19 0.37q-0.61 0.13-1.23 0.13q-1.57 0-2.49-0.91q-0.92-0.91-0.92-2.47q0-1.61 0.87-2.56q0.87-0.95 2.35-0.95q1.32 0 2.09 0.86q0.77 0.85 0.77 2.31zm-4.92-0.31h3.85q-0.02-0.89-0.5-1.42q-0.48-0.52-1.28-0.52q-0.9 0-1.45 0.51q-0.54 0.51-0.62 1.43zm12.15-0.1v3.96h-1.08v-3.92q0-0.93-0.36-1.4q-0.37-0.46-1.09-0.46q-0.88 0-1.38 0.56q-0.5 0.55-0.5 1.51v3.71h-1.09v-6.56h1.09v1.02q0.38-0.59 0.9-0.88q0.53-0.3 1.22-0.3q1.13 0 1.71 0.71q0.58 0.69 0.58 2.05zm2.13-4.46h1.08v1.86h2.23v0.84h-2.23v3.56q0 0.8 0.22 1.03q0.22 0.23 0.9 0.23h1.11v0.9h-1.11q-1.25 0-1.72-0.46q-0.48-0.47-0.48-1.7v-3.56h-0.79v-0.84h0.79zm8.91 2.06v1.02q-0.46-0.24-0.95-0.35q-0.49-0.12-1.02-0.12q-0.8 0-1.21 0.24q-0.4 0.25-0.4 0.74q0 0.38 0.29 0.59q0.29 0.22 1.15 0.41l0.37 0.08q1.15 0.25 1.63 0.7q0.49 0.44 0.49 1.25q0 0.91-0.73 1.44q-0.72 0.54-1.98 0.54q-0.53 0-1.11-0.1q-0.56-0.11-1.2-0.31v-1.12q0.6 0.31 1.18 0.47q0.58 0.15 1.15 0.15q0.76 0 1.17-0.25q0.41-0.27 0.41-0.74q0-0.44-0.3-0.68q-0.29-0.23-1.29-0.45l-0.38-0.08q-1-0.22-1.44-0.65q-0.45-0.44-0.45-1.2q0-0.93 0.66-1.43q0.65-0.5 1.86-0.5q0.6 0 1.12 0.08q0.53 0.09 0.98 0.27zm8.42 0.56q-0.86 0-1.37 0.68q-0.5 0.67-0.5 1.85q0 1.18 0.5 1.86q0.5 0.67 1.37 0.67q0.86 0 1.37-0.68q0.5-0.68 0.5-1.85q0-1.16-0.5-1.84q-0.51-0.69-1.37-0.69zm0-0.91q1.41 0 2.21 0.91q0.8 0.91 0.8 2.53q0 1.61-0.8 2.53q-0.8 0.92-2.21 0.92q-1.41 0-2.21-0.92q-0.8-0.92-0.8-2.53q0-1.62 0.8-2.53q0.8-0.91 2.21-0.91zm10.26 2.76v3.96h-1.08v-3.93q0-0.93-0.36-1.39q-0.37-0.47-1.09-0.47q-0.88 0-1.38 0.56q-0.51 0.56-0.51 1.52v3.71h-1.08v-6.57h1.08v1.02q0.39-0.59 0.91-0.88q0.53-0.29 1.22-0.29q1.13 0 1.71 0.7q0.58 0.7 0.58 2.06zm2.13-4.47h1.08v1.86h2.22v0.84h-2.22v3.56q0 0.81 0.22 1.04q0.22 0.22 0.9 0.22h1.1v0.91h-1.1q-1.25 0-1.73-0.47q-0.47-0.46-0.47-1.7v-3.56h-0.79v-0.84h0.79zm8.52 0h1.08v1.87h2.22v0.84h-2.22v3.56q0 0.8 0.22 1.03q0.22 0.23 0.9 0.23h1.1v0.9h-1.1q-1.25 0-1.73-0.46q-0.47-0.47-0.47-1.7v-3.56h-0.79v-0.84h0.79zm10.18 4.46v3.96h-1.08v-3.92q0-0.93-0.36-1.4q-0.37-0.46-1.09-0.46q-0.88 0-1.38 0.56q-0.51 0.55-0.51 1.51v3.71h-1.08v-9.11h1.08v3.57q0.39-0.59 0.91-0.88q0.53-0.3 1.22-0.3q1.13 0 1.71 0.71q0.58 0.69 0.58 2.05zm2.15 3.96v-6.56h1.08v6.56zm0-7.75v-1.36h1.07v1.36zm7.52 1.38v1.02q-0.46-0.23-0.95-0.35q-0.49-0.11-1.02-0.11q-0.8 0-1.2 0.24q-0.4 0.25-0.4 0.74q0 0.37 0.28 0.59q0.29 0.21 1.16 0.41l0.37 0.08q1.15 0.24 1.63 0.69q0.48 0.45 0.48 1.25q0 0.92-0.72 1.45q-0.72 0.53-1.99 0.53q-0.53 0-1.1-0.1q-0.57-0.1-1.2-0.31v-1.11q0.59 0.31 1.17 0.47q0.58 0.15 1.15 0.15q0.76 0 1.18-0.26q0.41-0.26 0.41-0.73q0-0.44-0.3-0.68q-0.3-0.23-1.3-0.45l-0.37-0.09q-1.01-0.21-1.45-0.64q-0.45-0.44-0.45-1.2q0-0.93 0.66-1.43q0.66-0.51 1.86-0.51q0.6 0 1.13 0.09q0.53 0.09 0.97 0.26zm5.87-2.05h1.08v1.86h2.22v0.84h-2.22v3.56q0 0.8 0.22 1.03q0.22 0.23 0.89 0.23h1.11v0.9h-1.11q-1.24 0-1.72-0.46q-0.47-0.47-0.47-1.7v-3.56h-0.79v-0.84h0.79zm10.33 4.88v0.52h-4.95q0.07 1.12 0.66 1.7q0.61 0.58 1.68 0.58q0.62 0 1.2-0.15q0.59-0.15 1.16-0.46v1.02q-0.58 0.25-1.19 0.38q-0.61 0.13-1.24 0.13q-1.57 0-2.49-0.92q-0.91-0.91-0.91-2.47q0-1.61 0.87-2.55q0.87-0.95 2.35-0.95q1.32 0 2.09 0.85q0.77 0.85 0.77 2.32zm-4.92-0.31l3.84-0.01q-0.01-0.89-0.49-1.41q-0.48-0.53-1.28-0.53q-0.9 0-1.45 0.51q-0.54 0.51-0.62 1.44zm11.8-1.45q0.41-0.72 0.97-1.07q0.56-0.34 1.32-0.34q1.03 0 1.58 0.72q0.56 0.71 0.56 2.04v3.96h-1.08v-3.93q0-0.94-0.34-1.4q-0.33-0.46-1.02-0.46q-0.83 0-1.32 0.56q-0.49 0.56-0.49 1.52v3.71h-1.08v-3.93q0-0.95-0.34-1.4q-0.33-0.46-1.03-0.46q-0.82 0-1.31 0.57q-0.49 0.55-0.49 1.51v3.71h-1.08v-6.57h1.08v1.02q0.37-0.6 0.89-0.89q0.52-0.28 1.22-0.28q0.72 0 1.22 0.36q0.5 0.36 0.74 1.05zm7.62 4.32v3.48h-1.08v-9.06h1.08v1q0.34-0.59 0.86-0.87q0.52-0.28 1.24-0.28q1.2 0 1.94 0.95q0.75 0.94 0.75 2.49q0 1.55-0.75 2.5q-0.74 0.95-1.94 0.95q-0.72 0-1.24-0.28q-0.52-0.29-0.86-0.88zm3.67-2.29q0-1.19-0.49-1.86q-0.49-0.68-1.34-0.68q-0.86 0-1.35 0.68q-0.49 0.67-0.49 1.86q0 1.19 0.49 1.87q0.49 0.67 1.35 0.67q0.85 0 1.34-0.67q0.49-0.68 0.49-1.87zm2.91 3.28v-9.12h1.08v9.12zm7.39-3.3h-1.08q-1.3 0-1.81 0.3q-0.5 0.3-0.5 1.02q0 0.57 0.37 0.91q0.38 0.33 1.03 0.33q0.9 0 1.44-0.63q0.55-0.64 0.55-1.69zm1.07-0.45v3.75h-1.07v-1q-0.37 0.6-0.92 0.89q-0.56 0.28-1.35 0.28q-1.01 0-1.61-0.57q-0.59-0.56-0.59-1.51q0-1.11 0.74-1.67q0.74-0.57 2.21-0.57h1.52v-0.1q0-0.75-0.5-1.15q-0.48-0.41-1.37-0.41q-0.56 0-1.09 0.14q-0.54 0.13-1.03 0.4v-1q0.59-0.23 1.15-0.34q0.56-0.11 1.08-0.11q1.43 0 2.13 0.73q0.7 0.74 0.7 2.24zm2.21-4.68h1.08v1.86h2.22v0.84h-2.22v3.56q0 0.81 0.22 1.04q0.22 0.22 0.89 0.22h1.11v0.91h-1.11q-1.24 0-1.72-0.47q-0.47-0.46-0.47-1.7v-3.56h-0.79v-0.84h0.79zm10.33 4.88v0.53h-4.95q0.07 1.11 0.66 1.7q0.61 0.58 1.68 0.58q0.62 0 1.2-0.16q0.59-0.15 1.16-0.45v1.02q-0.58 0.24-1.19 0.37q-0.61 0.13-1.24 0.13q-1.57 0-2.49-0.91q-0.91-0.92-0.91-2.48q0-1.61 0.87-2.55q0.87-0.95 2.35-0.95q1.32 0 2.09 0.86q0.77 0.84 0.77 2.31zm-4.92-0.31l3.84-0.01q-0.01-0.88-0.49-1.41q-0.48-0.53-1.28-0.53q-0.9 0-1.45 0.51q-0.54 0.51-0.62 1.44zm6.84 3.86v-1.49h1.24v1.49z" /><path fill="#ff0000" aria-label="Do not touch to the 42 logotype."  d="m-342.37-204.78h-1.43v6.81h1.43q1.81 0 2.65-0.82q0.84-0.82 0.84-2.59q0-1.76-0.84-2.58q-0.84-0.82-2.65-0.82zm-2.62 7.78v-8.75h2.44q2.54 0 3.73 1.06q1.19 1.06 1.19 3.31q0 2.26-1.2 3.32q-1.19 1.06-3.72 1.06zm11.73-5.81q-0.86 0-1.37 0.68q-0.5 0.68-0.5 1.85q0 1.18 0.5 1.86q0.5 0.68 1.37 0.68q0.86 0 1.37-0.68q0.5-0.68 0.5-1.86q0-1.16-0.5-1.84q-0.51-0.69-1.37-0.69zm0-0.91q1.41 0 2.21 0.91q0.8 0.92 0.8 2.53q0 1.62-0.8 2.54q-0.8 0.91-2.21 0.91q-1.41 0-2.21-0.91q-0.8-0.92-0.8-2.54q0-1.61 0.8-2.53q0.8-0.91 2.21-0.91zm14.07 2.76v3.96h-1.08v-3.93q0-0.93-0.36-1.39q-0.36-0.46-1.09-0.46q-0.87 0-1.38 0.55q-0.5 0.56-0.5 1.52v3.71h-1.09v-6.56h1.09v1.02q0.39-0.59 0.91-0.89q0.52-0.29 1.21-0.29q1.13 0 1.71 0.7q0.58 0.7 0.58 2.06zm4.69-1.85q-0.86 0-1.37 0.68q-0.5 0.68-0.5 1.85q0 1.18 0.5 1.86q0.5 0.68 1.37 0.68q0.87 0 1.37-0.68q0.5-0.68 0.5-1.86q0-1.16-0.5-1.84q-0.5-0.69-1.37-0.69zm0-0.91q1.41 0 2.21 0.91q0.81 0.92 0.81 2.53q0 1.62-0.81 2.54q-0.8 0.91-2.21 0.91q-1.41 0-2.21-0.91q-0.8-0.92-0.8-2.54q0-1.61 0.8-2.53q0.8-0.91 2.21-0.91zm4.79-1.71h1.08v1.87h2.22v0.84h-2.22v3.56q0 0.8 0.22 1.03q0.22 0.23 0.89 0.23h1.11v0.9h-1.11q-1.25 0-1.72-0.46q-0.47-0.47-0.47-1.7v-3.56h-0.8v-0.84h0.8zm8.52 0h1.08v1.86h2.22v0.84h-2.22v3.56q0 0.8 0.22 1.03q0.22 0.23 0.89 0.23h1.11v0.9h-1.11q-1.25 0-1.72-0.46q-0.47-0.47-0.47-1.7v-3.56h-0.8v-0.84h0.8zm7.26 2.62q-0.87 0-1.37 0.68q-0.5 0.67-0.5 1.85q0 1.18 0.49 1.86q0.51 0.67 1.38 0.67q0.86 0 1.37-0.68q0.5-0.68 0.5-1.85q0-1.16-0.5-1.84q-0.51-0.69-1.37-0.69zm0-0.91q1.41 0 2.21 0.91q0.8 0.91 0.8 2.53q0 1.61-0.8 2.53q-0.8 0.92-2.21 0.92q-1.41 0-2.21-0.92q-0.8-0.92-0.8-2.53q0-1.62 0.8-2.53q0.8-0.91 2.21-0.91zm4.69 4.13v-3.98h1.08v3.94q0 0.93 0.36 1.4q0.36 0.46 1.09 0.46q0.87 0 1.38-0.56q0.51-0.55 0.51-1.52v-3.72h1.07v6.57h-1.07v-1.01q-0.4 0.6-0.92 0.89q-0.51 0.29-1.2 0.29q-1.13 0-1.72-0.71q-0.58-0.7-0.58-2.05zm2.71-4.13zm9.73 0.41v1q-0.46-0.25-0.92-0.37q-0.46-0.13-0.93-0.13q-1.05 0-1.63 0.67q-0.58 0.66-0.58 1.86q0 1.2 0.58 1.87q0.58 0.66 1.63 0.66q0.47 0 0.93-0.12q0.46-0.13 0.92-0.38v0.99q-0.45 0.22-0.94 0.32q-0.48 0.11-1.03 0.11q-1.48 0-2.35-0.94q-0.87-0.93-0.87-2.51q0-1.6 0.88-2.52q0.88-0.92 2.42-0.92q0.49 0 0.97 0.1q0.47 0.1 0.92 0.31zm7.33 2.35v3.96h-1.08v-3.93q0-0.93-0.36-1.39q-0.37-0.47-1.09-0.47q-0.88 0-1.38 0.56q-0.5 0.56-0.5 1.52v3.71h-1.09v-9.12h1.09v3.57q0.38-0.59 0.9-0.88q0.53-0.29 1.22-0.29q1.13 0 1.71 0.7q0.58 0.7 0.58 2.06zm5.95-4.47h1.08v1.86h2.22v0.84h-2.22v3.56q0 0.81 0.22 1.04q0.22 0.22 0.89 0.22h1.11v0.91h-1.11q-1.25 0-1.72-0.47q-0.47-0.47-0.47-1.7v-3.56h-0.8v-0.84h0.8zm7.26 2.62q-0.87 0-1.37 0.68q-0.5 0.68-0.5 1.85q0 1.18 0.49 1.86q0.51 0.68 1.38 0.68q0.86 0 1.37-0.68q0.5-0.68 0.5-1.86q0-1.16-0.5-1.84q-0.51-0.69-1.37-0.69zm0-0.91q1.41 0 2.21 0.91q0.8 0.92 0.8 2.53q0 1.62-0.8 2.54q-0.8 0.91-2.21 0.91q-1.41 0-2.21-0.91q-0.8-0.92-0.8-2.54q0-1.61 0.8-2.53q0.8-0.91 2.21-0.91zm8.6-1.71h1.08v1.87h2.22v0.84h-2.22v3.56q0 0.8 0.22 1.03q0.22 0.23 0.89 0.23h1.11v0.9h-1.11q-1.24 0-1.72-0.46q-0.47-0.47-0.47-1.7v-3.56h-0.79v-0.84h0.79zm10.17 4.46v3.96h-1.07v-3.92q0-0.93-0.37-1.4q-0.36-0.46-1.09-0.46q-0.87 0-1.37 0.56q-0.51 0.55-0.51 1.51v3.71h-1.08v-9.11h1.08v3.57q0.39-0.59 0.91-0.88q0.53-0.3 1.21-0.3q1.13 0 1.71 0.71q0.58 0.69 0.58 2.05zm7.77 0.41v0.53h-4.96q0.07 1.11 0.67 1.7q0.6 0.58 1.67 0.58q0.63 0 1.21-0.15q0.58-0.16 1.16-0.46v1.02q-0.58 0.25-1.19 0.37q-0.61 0.13-1.24 0.13q-1.57 0-2.49-0.91q-0.91-0.92-0.91-2.47q0-1.62 0.86-2.56q0.88-0.95 2.35-0.95q1.33 0 2.09 0.86q0.78 0.85 0.78 2.31zm-4.92-0.31h3.84q-0.01-0.89-0.5-1.42q-0.48-0.52-1.28-0.52q-0.9 0-1.44 0.51q-0.54 0.51-0.62 1.43zm13.91 0.82v-4.67l-2.99 4.67zm-3.95-0.16l3.64-5.54h1.49v5.7h1.24v0.98h-1.24v2.06h-1.18v-2.06h-3.95zm9.35 2.21h4.13v1h-5.55v-1q0.67-0.7 1.83-1.87q1.17-1.18 1.47-1.52q0.56-0.64 0.79-1.08q0.22-0.44 0.22-0.87q0-0.7-0.49-1.14q-0.48-0.43-1.27-0.43q-0.56 0-1.18 0.19q-0.61 0.19-1.32 0.58v-1.19q0.72-0.29 1.34-0.43q0.62-0.15 1.14-0.15q1.36 0 2.17 0.68q0.8 0.68 0.8 1.82q0 0.53-0.2 1.02q-0.2 0.48-0.73 1.14q-0.15 0.17-0.94 0.98q-0.78 0.81-2.21 2.27zm10.28 1v-9.12h1.08v9.12zm5.87-5.81q-0.86 0-1.37 0.68q-0.5 0.67-0.5 1.85q0 1.18 0.5 1.86q0.5 0.67 1.37 0.67q0.86 0 1.37-0.68q0.5-0.68 0.5-1.85q0-1.17-0.5-1.85q-0.51-0.68-1.37-0.68zm0-0.92q1.41 0 2.21 0.92q0.8 0.91 0.8 2.53q0 1.61-0.8 2.53q-0.8 0.92-2.21 0.92q-1.41 0-2.21-0.92q-0.8-0.92-0.8-2.53q0-1.62 0.8-2.53q0.8-0.92 2.21-0.92zm9.12 3.37q0-1.17-0.49-1.82q-0.48-0.64-1.35-0.64q-0.87 0-1.35 0.64q-0.48 0.65-0.48 1.82q0 1.16 0.48 1.81q0.48 0.64 1.35 0.64q0.87 0 1.35-0.64q0.49-0.65 0.49-1.81zm1.08-3.21v5.75q0 1.68-0.75 2.5q-0.74 0.81-2.28 0.81q-0.56 0-1.07-0.08q-0.5-0.09-0.98-0.26v-1.05q0.48 0.26 0.94 0.38q0.46 0.12 0.94 0.12q1.07 0 1.59-0.55q0.53-0.56 0.53-1.68v-0.53q-0.33 0.58-0.86 0.87q-0.52 0.29-1.24 0.29q-1.21 0-1.95-0.92q-0.74-0.92-0.74-2.44q0-1.53 0.74-2.45q0.74-0.92 1.95-0.92q0.72 0 1.24 0.29q0.53 0.29 0.86 0.87v-1zm4.76 0.76q-0.86 0-1.37 0.68q-0.5 0.67-0.5 1.85q0 1.18 0.5 1.86q0.5 0.67 1.37 0.67q0.86 0 1.37-0.68q0.5-0.68 0.5-1.85q0-1.17-0.5-1.85q-0.51-0.68-1.37-0.68zm0-0.92q1.41 0 2.21 0.92q0.81 0.91 0.81 2.53q0 1.61-0.81 2.53q-0.8 0.92-2.21 0.92q-1.41 0-2.21-0.92q-0.8-0.92-0.8-2.53q0-1.62 0.8-2.53q0.8-0.92 2.21-0.92zm4.78-1.7h1.09v1.86h2.22v0.84h-2.22v3.56q0 0.81 0.22 1.03q0.22 0.23 0.89 0.23h1.11v0.91h-1.11q-1.25 0-1.72-0.47q-0.48-0.47-0.48-1.7v-3.56h-0.79v-0.84h0.79zm10.34 1.87l-2.88 7.17q-0.46 1.17-0.89 1.53q-0.44 0.36-1.16 0.36h-0.86v-0.91h0.63q0.44 0 0.69-0.21q0.25-0.21 0.54-0.99l0.2-0.5l-2.66-6.45h1.15l2.05 5.13l2.05-5.13zm2.53 5.57v3.49h-1.08v-9.06h1.08v0.99q0.34-0.58 0.85-0.86q0.53-0.29 1.25-0.29q1.19 0 1.94 0.95q0.75 0.95 0.75 2.49q0 1.55-0.75 2.5q-0.75 0.95-1.94 0.95q-0.72 0-1.25-0.28q-0.51-0.29-0.85-0.88zm3.67-2.29q0-1.19-0.49-1.86q-0.49-0.68-1.35-0.68q-0.85 0-1.34 0.68q-0.49 0.67-0.49 1.86q0 1.19 0.49 1.87q0.49 0.68 1.34 0.68q0.86 0 1.35-0.68q0.49-0.68 0.49-1.87zm8.52-0.27v0.53h-4.96q0.07 1.11 0.67 1.69q0.6 0.58 1.67 0.58q0.62 0 1.2-0.15q0.59-0.15 1.16-0.45v1.01q-0.58 0.25-1.18 0.38q-0.61 0.13-1.24 0.13q-1.57 0-2.49-0.92q-0.92-0.91-0.92-2.47q0-1.61 0.87-2.55q0.87-0.95 2.35-0.95q1.33 0 2.09 0.85q0.78 0.85 0.78 2.32zm-4.93-0.31l3.85-0.01q-0.01-0.88-0.5-1.41q-0.48-0.53-1.28-0.53q-0.9 0-1.44 0.51q-0.54 0.51-0.63 1.44zm6.85 3.86v-1.49h1.23v1.49z" /><path fill="#ff0000" aria-label="If there is font issue, please check Futura PT is installed on your "  d="m-344.99-178v-8.75h1.19v8.75zm5.79-9.12h1.02v0.9h-1.03q-0.58 0-0.81 0.23q-0.22 0.24-0.22 0.85v0.58h1.78v0.84h-1.78v5.72h-1.08v-5.72h-1.04v-0.84h1.04v-0.46q0-1.1 0.51-1.59q0.51-0.51 1.61-0.51zm5.72 0.69h1.09v1.87h2.22v0.84h-2.22v3.56q0 0.8 0.21 1.03q0.23 0.23 0.9 0.23h1.11v0.9h-1.11q-1.25 0-1.72-0.46q-0.48-0.47-0.48-1.7v-3.56h-0.79v-0.84h0.79zm10.18 4.46v3.96h-1.08v-3.92q0-0.93-0.36-1.4q-0.37-0.46-1.09-0.46q-0.87 0-1.38 0.56q-0.5 0.55-0.5 1.51v3.71h-1.09v-9.11h1.09v3.57q0.38-0.59 0.91-0.88q0.52-0.3 1.21-0.3q1.13 0 1.71 0.71q0.58 0.69 0.58 2.05zm7.76 0.41v0.53h-4.95q0.07 1.11 0.66 1.7q0.61 0.58 1.68 0.58q0.62 0 1.2-0.15q0.59-0.16 1.16-0.46v1.02q-0.58 0.25-1.19 0.37q-0.61 0.13-1.23 0.13q-1.57 0-2.49-0.91q-0.92-0.91-0.92-2.47q0-1.61 0.87-2.56q0.87-0.95 2.35-0.95q1.32 0 2.09 0.86q0.77 0.85 0.77 2.31zm-4.92-0.31h3.85q-0.02-0.89-0.5-1.42q-0.48-0.52-1.28-0.52q-0.9 0-1.45 0.51q-0.54 0.51-0.62 1.43zm10.49-2.8l0.01 1.11q-0.19-0.11-0.4-0.15q-0.21-0.06-0.47-0.06q-0.92 0-1.41 0.6q-0.48 0.59-0.48 1.71v3.45h-1.09v-6.56h1.09v1.02q0.34-0.6 0.88-0.88q0.55-0.3 1.32-0.3q0.12 0 0.25 0.02q0.14 0.01 0.3 0.04zm6.49 3.11v0.53h-4.96q0.07 1.11 0.67 1.7q0.6 0.58 1.67 0.58q0.62 0 1.2-0.15q0.59-0.16 1.16-0.46v1.02q-0.58 0.25-1.19 0.37q-0.6 0.13-1.23 0.13q-1.57 0-2.49-0.91q-0.92-0.91-0.92-2.47q0-1.61 0.87-2.56q0.87-0.95 2.35-0.95q1.33 0 2.09 0.86q0.78 0.85 0.78 2.31zm-4.93-0.31h3.85q-0.01-0.89-0.5-1.42q-0.48-0.52-1.28-0.52q-0.9 0-1.44 0.51q-0.54 0.51-0.63 1.43zm10.51 3.86v-6.56h1.08v6.56zm0-7.75v-1.36h1.08v1.36zm7.51 1.38v1.02q-0.45-0.23-0.95-0.35q-0.49-0.12-1.01-0.12q-0.81 0-1.21 0.25q-0.4 0.25-0.4 0.74q0 0.37 0.29 0.59q0.28 0.21 1.15 0.41l0.37 0.08q1.15 0.24 1.63 0.69q0.49 0.45 0.49 1.25q0 0.92-0.73 1.45q-0.72 0.53-1.99 0.53q-0.52 0-1.1-0.1q-0.57-0.1-1.2-0.31v-1.11q0.6 0.31 1.18 0.47q0.58 0.15 1.15 0.15q0.76 0 1.17-0.26q0.41-0.26 0.41-0.74q0-0.43-0.3-0.67q-0.29-0.23-1.3-0.45l-0.37-0.09q-1-0.21-1.45-0.64q-0.44-0.44-0.44-1.2q0-0.93 0.65-1.43q0.66-0.51 1.87-0.51q0.59 0 1.12 0.09q0.53 0.09 0.97 0.26zm8.19-2.74h1.02v0.89h-1.03q-0.58 0-0.81 0.24q-0.22 0.23-0.22 0.84v0.58h1.77v0.84h-1.77v5.72h-1.09v-5.72h-1.03v-0.84h1.03v-0.46q0-1.09 0.51-1.59q0.51-0.5 1.62-0.5zm4.46 3.31q-0.86 0-1.37 0.68q-0.5 0.67-0.5 1.85q0 1.18 0.5 1.86q0.5 0.67 1.37 0.67q0.87 0 1.37-0.68q0.5-0.68 0.5-1.85q0-1.17-0.5-1.85q-0.5-0.68-1.37-0.68zm0-0.92q1.41 0 2.21 0.92q0.81 0.91 0.81 2.53q0 1.61-0.81 2.53q-0.8 0.91-2.21 0.91q-1.41 0-2.21-0.91q-0.8-0.92-0.8-2.53q0-1.62 0.8-2.53q0.8-0.92 2.21-0.92zm10.26 2.76v3.96h-1.08v-3.92q0-0.93-0.36-1.4q-0.37-0.46-1.09-0.46q-0.88 0-1.38 0.56q-0.5 0.55-0.5 1.51v3.71h-1.09v-6.56h1.09v1.02q0.38-0.59 0.9-0.88q0.53-0.3 1.22-0.3q1.13 0 1.71 0.71q0.58 0.69 0.58 2.05zm2.13-4.46h1.08v1.86h2.23v0.84h-2.23v3.56q0 0.8 0.22 1.03q0.22 0.23 0.9 0.23h1.11v0.9h-1.11q-1.25 0-1.72-0.46q-0.48-0.47-0.48-1.7v-3.56h-0.79v-0.84h0.79zm8.54 8.43v-6.57h1.08v6.57zm0-7.76v-1.36h1.07v1.36zm7.52 1.39v1.02q-0.46-0.24-0.95-0.35q-0.49-0.12-1.02-0.12q-0.8 0-1.2 0.24q-0.4 0.25-0.4 0.74q0 0.38 0.28 0.59q0.29 0.22 1.16 0.41l0.37 0.08q1.15 0.25 1.63 0.7q0.48 0.44 0.48 1.25q0 0.91-0.72 1.44q-0.72 0.54-1.99 0.54q-0.53 0-1.1-0.1q-0.57-0.11-1.2-0.31v-1.12q0.6 0.31 1.18 0.47q0.58 0.15 1.14 0.15q0.77 0 1.18-0.25q0.41-0.27 0.41-0.74q0-0.44-0.3-0.68q-0.3-0.23-1.3-0.45l-0.37-0.08q-1-0.22-1.45-0.65q-0.45-0.44-0.45-1.2q0-0.93 0.66-1.43q0.66-0.5 1.86-0.5q0.6 0 1.13 0.08q0.53 0.09 0.97 0.27zm6.25 0v1.02q-0.45-0.24-0.95-0.35q-0.49-0.12-1.01-0.12q-0.81 0-1.21 0.24q-0.4 0.25-0.4 0.74q0 0.38 0.29 0.59q0.28 0.22 1.15 0.41l0.37 0.08q1.15 0.25 1.63 0.7q0.49 0.44 0.49 1.25q0 0.91-0.73 1.44q-0.72 0.54-1.99 0.54q-0.52 0-1.1-0.1q-0.57-0.11-1.2-0.31v-1.12q0.6 0.31 1.18 0.47q0.58 0.15 1.15 0.15q0.76 0 1.17-0.25q0.41-0.27 0.41-0.74q0-0.44-0.3-0.68q-0.29-0.23-1.3-0.45l-0.37-0.08q-1-0.22-1.45-0.65q-0.44-0.44-0.44-1.2q0-0.93 0.65-1.43q0.66-0.5 1.87-0.5q0.59 0 1.12 0.08q0.53 0.09 0.97 0.27zm1.96 3.78v-3.98h1.08v3.94q0 0.93 0.36 1.4q0.37 0.46 1.09 0.46q0.88 0 1.38-0.56q0.51-0.55 0.51-1.52v-3.72h1.08v6.57h-1.08v-1.01q-0.39 0.6-0.92 0.89q-0.51 0.29-1.2 0.29q-1.13 0-1.71-0.71q-0.59-0.7-0.59-2.05zm2.71-4.13zm10.62 3.17v0.52h-4.96q0.07 1.12 0.67 1.7q0.61 0.58 1.68 0.58q0.62 0 1.2-0.15q0.58-0.15 1.16-0.46v1.02q-0.58 0.25-1.19 0.38q-0.61 0.13-1.24 0.13q-1.57 0-2.49-0.92q-0.91-0.91-0.91-2.47q0-1.61 0.87-2.55q0.87-0.95 2.35-0.95q1.32 0 2.09 0.85q0.77 0.85 0.77 2.32zm-4.92-0.31l3.84-0.01q-0.01-0.89-0.5-1.41q-0.48-0.53-1.27-0.53q-0.9 0-1.45 0.51q-0.54 0.51-0.62 1.44zm6.97 3.38v-1.01h1.23v1.01l-0.96 1.87h-0.75zm8.39-0.5v3.48h-1.08v-9.06h1.08v1q0.34-0.59 0.86-0.87q0.52-0.29 1.24-0.29q1.19 0 1.94 0.95q0.75 0.95 0.75 2.5q0 1.54-0.75 2.49q-0.75 0.95-1.94 0.95q-0.72 0-1.24-0.28q-0.52-0.29-0.86-0.87zm3.67-2.29q0-1.19-0.49-1.87q-0.49-0.68-1.34-0.68q-0.86 0-1.35 0.68q-0.49 0.68-0.49 1.87q0 1.19 0.49 1.87q0.49 0.67 1.35 0.67q0.85 0 1.34-0.67q0.49-0.68 0.49-1.87zm2.91 3.27v-9.12h1.07v9.12zm8.95-3.55v0.53h-4.96q0.07 1.11 0.67 1.7q0.61 0.58 1.68 0.58q0.62 0 1.2-0.15q0.59-0.16 1.16-0.46v1.02q-0.58 0.24-1.19 0.37q-0.61 0.13-1.24 0.13q-1.57 0-2.49-0.91q-0.91-0.92-0.91-2.48q0-1.61 0.87-2.55q0.87-0.95 2.35-0.95q1.32 0 2.09 0.86q0.77 0.85 0.77 2.31zm-4.92-0.31l3.84-0.01q-0.01-0.88-0.49-1.41q-0.49-0.53-1.28-0.53q-0.9 0-1.45 0.51q-0.54 0.51-0.62 1.44zm10.75 0.56h-1.08q-1.3 0-1.81 0.3q-0.5 0.3-0.5 1.02q0 0.58 0.37 0.92q0.38 0.33 1.04 0.33q0.89 0 1.43-0.63q0.55-0.64 0.55-1.7zm1.07-0.44v3.74h-1.07v-0.99q-0.37 0.59-0.92 0.88q-0.55 0.28-1.35 0.28q-1.01 0-1.61-0.56q-0.59-0.57-0.59-1.52q0-1.11 0.74-1.67q0.74-0.56 2.21-0.56h1.52v-0.11q0-0.74-0.5-1.14q-0.48-0.41-1.37-0.41q-0.56 0-1.09 0.13q-0.54 0.13-1.03 0.4v-0.99q0.59-0.23 1.15-0.34q0.56-0.12 1.08-0.12q1.43 0 2.13 0.74q0.7 0.74 0.7 2.24zm6.41-2.63v1.02q-0.46-0.23-0.95-0.35q-0.49-0.12-1.02-0.12q-0.8 0-1.21 0.25q-0.4 0.25-0.4 0.74q0 0.37 0.29 0.59q0.29 0.21 1.16 0.4l0.36 0.09q1.15 0.24 1.63 0.69q0.49 0.45 0.49 1.25q0 0.92-0.73 1.45q-0.72 0.53-1.98 0.53q-0.53 0-1.1-0.1q-0.57-0.1-1.21-0.31v-1.11q0.6 0.31 1.18 0.47q0.58 0.15 1.15 0.15q0.76 0 1.17-0.26q0.41-0.26 0.41-0.74q0-0.44-0.3-0.67q-0.29-0.23-1.29-0.45l-0.38-0.09q-1-0.21-1.44-0.64q-0.45-0.44-0.45-1.21q0-0.92 0.66-1.43q0.65-0.5 1.86-0.5q0.6 0 1.13 0.09q0.52 0.09 0.97 0.26zm7.68 2.82v0.53h-4.96q0.07 1.11 0.67 1.7q0.6 0.58 1.68 0.58q0.62 0 1.2-0.15q0.58-0.16 1.16-0.46v1.02q-0.58 0.24-1.19 0.37q-0.61 0.13-1.24 0.13q-1.57 0-2.49-0.91q-0.91-0.92-0.91-2.48q0-1.61 0.86-2.55q0.88-0.95 2.35-0.95q1.33 0 2.1 0.86q0.77 0.85 0.77 2.31zm-4.92-0.31l3.84-0.01q-0.01-0.88-0.5-1.41q-0.48-0.52-1.27-0.52q-0.91 0-1.45 0.5q-0.54 0.51-0.62 1.44zm15.23-2.45v1.01q-0.46-0.25-0.92-0.38q-0.46-0.12-0.93-0.12q-1.05 0-1.63 0.66q-0.58 0.67-0.58 1.87q0 1.2 0.58 1.87q0.58 0.66 1.63 0.66q0.47 0 0.93-0.13q0.46-0.12 0.92-0.38v1q-0.45 0.21-0.94 0.32q-0.48 0.1-1.03 0.1q-1.48 0-2.35-0.93q-0.87-0.93-0.87-2.51q0-1.61 0.87-2.53q0.89-0.92 2.42-0.92q0.5 0 0.98 0.11q0.47 0.1 0.92 0.3zm7.33 2.35v3.96h-1.08v-3.92q0-0.94-0.36-1.4q-0.37-0.46-1.09-0.46q-0.88 0-1.38 0.56q-0.51 0.55-0.51 1.51v3.71h-1.08v-9.12h1.08v3.58q0.39-0.59 0.91-0.89q0.53-0.29 1.22-0.29q1.13 0 1.71 0.7q0.58 0.7 0.58 2.06zm7.76 0.41v0.53h-4.96q0.07 1.11 0.67 1.7q0.6 0.58 1.68 0.58q0.62 0 1.2-0.15q0.58-0.16 1.16-0.46v1.02q-0.58 0.24-1.19 0.37q-0.61 0.13-1.24 0.13q-1.57 0-2.49-0.91q-0.91-0.92-0.91-2.48q0-1.61 0.87-2.55q0.87-0.95 2.34-0.95q1.33 0 2.1 0.86q0.77 0.85 0.77 2.31zm-4.92-0.31l3.84-0.01q-0.01-0.88-0.5-1.41q-0.48-0.52-1.27-0.52q-0.91 0-1.45 0.5q-0.54 0.51-0.62 1.44zm11.41-2.45v1.01q-0.45-0.25-0.92-0.38q-0.45-0.12-0.92-0.12q-1.05 0-1.63 0.66q-0.58 0.67-0.58 1.87q0 1.2 0.58 1.87q0.58 0.66 1.63 0.66q0.47 0 0.92-0.13q0.47-0.12 0.92-0.38v1q-0.45 0.21-0.94 0.32q-0.48 0.1-1.02 0.1q-1.48 0-2.36-0.93q-0.87-0.93-0.87-2.51q0-1.61 0.88-2.53q0.88-0.92 2.42-0.92q0.5 0 0.97 0.11q0.48 0.1 0.92 0.3zm1.84 6.31v-9.12h1.08v5.39l3.22-2.83h1.37l-3.48 3.07l3.63 3.49h-1.41l-3.33-3.2v3.2zm10.85 0v-8.75h5.03v1h-3.84v2.58h3.46v0.99h-3.46v4.18zm6.08-2.59v-3.97h1.08v3.93q0 0.93 0.36 1.4q0.37 0.46 1.09 0.46q0.88 0 1.38-0.55q0.51-0.56 0.51-1.52v-3.72h1.08v6.56h-1.08v-1.01q-0.39 0.6-0.91 0.89q-0.52 0.29-1.2 0.29q-1.13 0-1.72-0.7q-0.59-0.7-0.59-2.06zm2.72-4.13zm4.98-1.7h1.09v1.86h2.22v0.84h-2.22v3.56q0 0.8 0.21 1.03q0.23 0.23 0.9 0.23h1.11v0.9h-1.11q-1.25 0-1.72-0.46q-0.48-0.47-0.48-1.7v-3.56h-0.79v-0.84h0.79zm4.61 5.84v-3.98h1.08v3.93q0 0.94 0.37 1.4q0.36 0.47 1.09 0.47q0.87 0 1.37-0.56q0.51-0.56 0.51-1.52v-3.72h1.08v6.57h-1.08v-1.01q-0.39 0.59-0.91 0.89q-0.52 0.28-1.2 0.28q-1.13 0-1.72-0.7q-0.59-0.7-0.59-2.05zm2.72-4.14zm8.8 0.06v1.11q-0.18-0.11-0.39-0.15q-0.22-0.05-0.47-0.05q-0.92 0-1.41 0.59q-0.49 0.59-0.49 1.71v3.46h-1.08v-6.57h1.08v1.02q0.34-0.6 0.89-0.88q0.54-0.3 1.32-0.3q0.11 0 0.25 0.02q0.13 0.01 0.3 0.04zm5.19 3.37h-1.07q-1.31 0-1.81 0.3q-0.51 0.29-0.51 1.01q0 0.58 0.38 0.92q0.38 0.33 1.03 0.33q0.9 0 1.43-0.63q0.55-0.64 0.55-1.69zm1.08-0.45v3.75h-1.08v-1q-0.37 0.6-0.92 0.88q-0.55 0.29-1.35 0.29q-1.01 0-1.6-0.57q-0.6-0.57-0.6-1.51q0-1.11 0.74-1.67q0.75-0.57 2.22-0.57h1.51v-0.1q0-0.75-0.49-1.15q-0.49-0.41-1.37-0.41q-0.57 0-1.1 0.13q-0.53 0.14-1.03 0.41v-1q0.6-0.23 1.15-0.34q0.56-0.12 1.09-0.12q1.42 0 2.12 0.74q0.71 0.74 0.71 2.24zm8.75-4.03h-1.49v3.29h1.49q0.83 0 1.28-0.43q0.45-0.43 0.45-1.22q0-0.78-0.45-1.21q-0.45-0.43-1.28-0.43zm-2.67 7.78v-8.75h2.67q1.47 0 2.22 0.67q0.76 0.66 0.76 1.94q0 1.3-0.76 1.96q-0.75 0.66-2.22 0.66h-1.49v3.52zm6.03-7.76v-0.99h7.4v0.99h-3.11v7.76h-1.19v-7.76zm12.31 7.76v-6.57h1.08v6.57zm0-7.76v-1.36h1.08v1.36zm7.52 1.39v1.02q-0.46-0.24-0.95-0.36q-0.5-0.11-1.02-0.11q-0.81 0-1.21 0.24q-0.4 0.25-0.4 0.74q0 0.38 0.29 0.59q0.29 0.21 1.15 0.41l0.37 0.08q1.15 0.25 1.63 0.7q0.49 0.44 0.49 1.24q0 0.92-0.73 1.45q-0.72 0.54-1.99 0.54q-0.52 0-1.1-0.1q-0.57-0.11-1.2-0.31v-1.12q0.6 0.31 1.18 0.47q0.58 0.15 1.15 0.15q0.76 0 1.17-0.25q0.41-0.27 0.41-0.74q0-0.44-0.3-0.68q-0.29-0.23-1.29-0.45l-0.38-0.09q-1-0.21-1.45-0.64q-0.44-0.44-0.44-1.2q0-0.93 0.66-1.43q0.65-0.51 1.86-0.51q0.6 0 1.12 0.09q0.53 0.09 0.98 0.27zm5.88 6.37v-6.57h1.08v6.57zm0-7.76v-1.36h1.08v1.36zm8.78 3.79v3.97h-1.07v-3.93q0-0.93-0.37-1.4q-0.36-0.46-1.09-0.46q-0.87 0-1.37 0.56q-0.51 0.56-0.51 1.52v3.71h-1.08v-6.57h1.08v1.02q0.39-0.59 0.91-0.88q0.53-0.3 1.21-0.3q1.13 0 1.71 0.71q0.58 0.69 0.58 2.05zm6.34-2.4v1.02q-0.46-0.24-0.95-0.36q-0.49-0.11-1.02-0.11q-0.8 0-1.21 0.24q-0.4 0.25-0.4 0.74q0 0.38 0.29 0.59q0.29 0.21 1.16 0.41l0.36 0.08q1.15 0.25 1.63 0.7q0.49 0.44 0.49 1.24q0 0.92-0.73 1.45q-0.72 0.54-1.98 0.54q-0.53 0-1.1-0.1q-0.57-0.11-1.21-0.31v-1.12q0.6 0.31 1.18 0.47q0.58 0.15 1.15 0.15q0.76 0 1.17-0.25q0.41-0.27 0.41-0.74q0-0.44-0.3-0.68q-0.29-0.23-1.29-0.45l-0.38-0.09q-1-0.21-1.44-0.64q-0.45-0.44-0.45-1.2q0-0.93 0.66-1.43q0.65-0.51 1.86-0.51q0.6 0 1.13 0.09q0.52 0.09 0.97 0.27zm2.05-2.06h1.08v1.86h2.22v0.84h-2.22v3.56q0 0.81 0.22 1.03q0.22 0.23 0.9 0.23h1.1v0.91h-1.1q-1.25 0-1.73-0.47q-0.47-0.47-0.47-1.7v-3.56h-0.79v-0.84h0.79zm8.78 5.13h-1.08q-1.3 0-1.81 0.3q-0.5 0.3-0.5 1.02q0 0.57 0.37 0.91q0.39 0.34 1.04 0.34q0.89 0 1.43-0.64q0.55-0.64 0.55-1.69zm1.07-0.45v3.75h-1.07v-1q-0.37 0.6-0.92 0.89q-0.55 0.28-1.35 0.28q-1.01 0-1.61-0.56q-0.59-0.57-0.59-1.52q0-1.11 0.74-1.67q0.74-0.56 2.21-0.56h1.52v-0.11q0-0.74-0.5-1.15q-0.48-0.41-1.37-0.41q-0.56 0-1.09 0.14q-0.54 0.13-1.03 0.4v-0.99q0.59-0.23 1.15-0.34q0.56-0.12 1.08-0.12q1.43 0 2.13 0.74q0.7 0.73 0.7 2.23zm2.23 3.75v-9.12h1.07v9.12zm3.34 0v-9.12h1.08v9.12zm8.94-3.55v0.53h-4.95q0.07 1.11 0.66 1.69q0.61 0.58 1.68 0.58q0.62 0 1.2-0.15q0.59-0.15 1.16-0.45v1.01q-0.58 0.25-1.19 0.38q-0.61 0.13-1.24 0.13q-1.57 0-2.49-0.92q-0.91-0.91-0.91-2.47q0-1.61 0.87-2.55q0.87-0.95 2.35-0.95q1.32 0 2.09 0.85q0.77 0.85 0.77 2.32zm-4.92-0.31l3.84-0.01q-0.01-0.88-0.49-1.41q-0.48-0.53-1.28-0.53q-0.9 0-1.45 0.51q-0.54 0.51-0.62 1.44zm11.01-1.71v-3.55h1.08v9.12h-1.08v-0.99q-0.34 0.59-0.86 0.88q-0.52 0.28-1.24 0.28q-1.19 0-1.94-0.95q-0.75-0.95-0.75-2.5q0-1.54 0.75-2.49q0.75-0.95 1.94-0.95q0.72 0 1.24 0.29q0.52 0.28 0.86 0.86zm-3.67 2.29q0 1.19 0.48 1.87q0.5 0.68 1.35 0.68q0.86 0 1.35-0.68q0.49-0.68 0.49-1.87q0-1.19-0.49-1.86q-0.49-0.68-1.35-0.68q-0.85 0-1.35 0.68q-0.48 0.67-0.48 1.86zm13.33-2.53q-0.87 0-1.37 0.68q-0.51 0.68-0.51 1.85q0 1.18 0.5 1.86q0.5 0.67 1.38 0.67q0.86 0 1.36-0.68q0.51-0.67 0.51-1.85q0-1.16-0.51-1.84q-0.5-0.69-1.36-0.69zm0-0.91q1.4 0 2.21 0.91q0.8 0.92 0.8 2.53q0 1.61-0.8 2.53q-0.81 0.92-2.21 0.92q-1.42 0-2.22-0.92q-0.79-0.92-0.79-2.53q0-1.61 0.79-2.53q0.8-0.91 2.22-0.91zm10.25 2.76v3.96h-1.08v-3.93q0-0.93-0.36-1.39q-0.36-0.46-1.09-0.46q-0.87 0-1.38 0.55q-0.5 0.56-0.5 1.52v3.71h-1.09v-6.56h1.09v1.02q0.39-0.6 0.91-0.89q0.52-0.29 1.21-0.29q1.13 0 1.71 0.7q0.58 0.7 0.58 2.06zm11.58-2.6l-2.88 7.17q-0.46 1.17-0.89 1.53q-0.44 0.35-1.16 0.35h-0.87v-0.9h0.64q0.44 0 0.69-0.21q0.24-0.21 0.54-0.99l0.2-0.5l-2.66-6.45h1.14l2.06 5.13l2.05-5.13zm4.03 0.75q-0.87 0-1.37 0.68q-0.51 0.68-0.51 1.85q0 1.18 0.5 1.86q0.5 0.67 1.38 0.67q0.86 0 1.36-0.68q0.51-0.67 0.51-1.85q0-1.16-0.51-1.84q-0.5-0.69-1.36-0.69zm0-0.91q1.4 0 2.21 0.91q0.8 0.92 0.8 2.53q0 1.61-0.8 2.53q-0.81 0.92-2.21 0.92q-1.41 0-2.22-0.92q-0.79-0.92-0.79-2.53q0-1.61 0.79-2.53q0.81-0.91 2.22-0.91zm4.68 4.13v-3.97h1.08v3.93q0 0.93 0.37 1.4q0.36 0.46 1.09 0.46q0.87 0 1.37-0.56q0.51-0.55 0.51-1.51v-3.72h1.08v6.56h-1.08v-1.01q-0.39 0.6-0.91 0.89q-0.52 0.29-1.2 0.29q-1.13 0-1.72-0.7q-0.59-0.71-0.59-2.06zm2.72-4.13zm8.8 0.06v1.1q-0.18-0.1-0.39-0.15q-0.21-0.05-0.47-0.05q-0.92 0-1.41 0.6q-0.49 0.59-0.49 1.7v3.46h-1.08v-6.56h1.08v1.02q0.34-0.6 0.89-0.89q0.54-0.29 1.32-0.29q0.12 0 0.25 0.02q0.13 0.01 0.3 0.04z" /><path fill="#ff0000" aria-label="computer."  d="m-340.31-165.31v1.01q-0.46-0.25-0.92-0.38q-0.46-0.13-0.93-0.13q-1.04 0-1.62 0.67q-0.58 0.66-0.58 1.86q0 1.21 0.58 1.87q0.58 0.67 1.62 0.67q0.47 0 0.93-0.13q0.46-0.13 0.92-0.38v1q-0.45 0.21-0.94 0.31q-0.48 0.11-1.02 0.11q-1.48 0-2.36-0.93q-0.87-0.93-0.87-2.52q0-1.6 0.88-2.52q0.88-0.92 2.42-0.92q0.5 0 0.97 0.1q0.48 0.1 0.92 0.31zm4.42 0.5q-0.87 0-1.37 0.68q-0.51 0.68-0.51 1.85q0 1.18 0.5 1.86q0.51 0.68 1.38 0.68q0.86 0 1.36-0.68q0.51-0.68 0.51-1.86q0-1.16-0.51-1.84q-0.5-0.69-1.36-0.69zm0-0.91q1.4 0 2.21 0.91q0.8 0.92 0.8 2.53q0 1.62-0.8 2.54q-0.81 0.91-2.21 0.91q-1.41 0-2.22-0.91q-0.79-0.92-0.79-2.54q0-1.61 0.79-2.53q0.81-0.91 2.22-0.91zm9.91 1.42q0.4-0.73 0.96-1.07q0.57-0.35 1.33-0.35q1.02 0 1.58 0.72q0.56 0.71 0.56 2.04v3.96h-1.09v-3.93q0-0.94-0.33-1.4q-0.34-0.45-1.02-0.45q-0.84 0-1.33 0.55q-0.48 0.56-0.48 1.52v3.71h-1.09v-3.93q0-0.94-0.33-1.4q-0.33-0.45-1.03-0.45q-0.83 0-1.31 0.56q-0.49 0.56-0.49 1.51v3.71h-1.08v-6.56h1.08v1.02q0.37-0.61 0.88-0.89q0.52-0.29 1.23-0.29q0.71 0 1.21 0.36q0.51 0.37 0.75 1.06zm7.62 4.32v3.48h-1.08v-9.06h1.08v0.99q0.34-0.58 0.86-0.86q0.52-0.29 1.24-0.29q1.19 0 1.94 0.95q0.75 0.95 0.75 2.49q0 1.55-0.75 2.5q-0.75 0.95-1.94 0.95q-0.72 0-1.24-0.28q-0.52-0.29-0.86-0.87zm3.67-2.3q0-1.18-0.49-1.86q-0.49-0.68-1.35-0.68q-0.85 0-1.34 0.68q-0.49 0.68-0.49 1.86q0 1.19 0.49 1.87q0.49 0.68 1.34 0.68q0.86 0 1.35-0.68q0.49-0.68 0.49-1.87zm2.79 0.69v-3.97h1.08v3.93q0 0.93 0.36 1.4q0.37 0.46 1.09 0.46q0.88 0 1.38-0.55q0.51-0.56 0.51-1.52v-3.72h1.08v6.56h-1.08v-1.01q-0.39 0.6-0.91 0.89q-0.52 0.29-1.2 0.29q-1.14 0-1.72-0.7q-0.59-0.71-0.59-2.06zm2.72-4.13zm4.98-1.71h1.09v1.87h2.22v0.84h-2.22v3.56q0 0.8 0.21 1.03q0.23 0.23 0.9 0.23h1.11v0.9h-1.11q-1.25 0-1.72-0.46q-0.48-0.47-0.48-1.7v-3.56h-0.79v-0.84h0.79zm10.34 4.87v0.53h-4.96q0.07 1.11 0.67 1.7q0.6 0.58 1.67 0.58q0.63 0 1.21-0.15q0.58-0.16 1.16-0.46v1.02q-0.58 0.25-1.19 0.37q-0.61 0.13-1.24 0.13q-1.57 0-2.49-0.91q-0.91-0.91-0.91-2.47q0-1.61 0.86-2.56q0.88-0.95 2.35-0.95q1.33 0 2.09 0.86q0.78 0.85 0.78 2.31zm-4.92-0.31h3.84q-0.01-0.89-0.5-1.42q-0.48-0.52-1.28-0.52q-0.9 0-1.44 0.51q-0.54 0.51-0.62 1.43zm10.48-2.8l0.01 1.11q-0.18-0.11-0.4-0.15q-0.21-0.06-0.47-0.06q-0.91 0-1.4 0.6q-0.49 0.59-0.49 1.71v3.45h-1.08v-6.56h1.08v1.02q0.34-0.6 0.88-0.88q0.55-0.3 1.33-0.3q0.11 0 0.25 0.02q0.13 0.01 0.29 0.04zm0.19 6.66v-1.48h1.24v1.48z" /></g></svg>